<svg xmlns="http://www.w3.org/2000/svg" version="1.1" xmlns:xlink="http://www.w3.org/1999/xlink" xmlns:svgjs="http://svgjs.dev/svgjs" width="1000" height="1000" viewBox="0 0 1000 1000"><rect width="1000" height="1000" fill="#ffffff"></rect><g transform="matrix(0.7,0,0,0.7,149.57575757575756,282.1265587044535)"><svg viewBox="0 0 396 247" data-background-color="#ffffff" preserveAspectRatio="xMidYMid meet" height="623" width="1000" xmlns="http://www.w3.org/2000/svg" xmlns:xlink="http://www.w3.org/1999/xlink"><g id="tight-bounds" transform="matrix(1,0,0,1,0.2400000000000091,-0.09999999999999432)"><svg viewBox="0 0 395.52 247.2" height="247.2" width="395.52"><g><svg></svg></g><g><svg viewBox="0 0 395.52 247.2" height="247.2" width="395.52"><mask id="11940cd5-49d4-4d75-98fc-439da6f61be1"><rect width="640" height="400" fill="white"></rect><g transform="matrix(1,0,0,1,39.55199999999999,77.40223164763458)"><svg viewBox="0 0 316.416 92.39553670473082" height="92.39553670473082" width="316.416"><g><svg viewBox="0 0 316.416 92.39553670473082" height="92.39553670473082" width="316.416"><g><svg viewBox="0 0 316.416 92.39553670473082" height="92.39553670473082" width="316.416"><g><svg viewBox="0 0 316.416 92.39553670473082" height="92.39553670473082" width="316.416"><g id="SvgjsG1676"><svg viewBox="0 0 316.416 92.39553670473082" height="92.39553670473082" width="316.416" id="SvgjsSvg1675"><g><svg viewBox="0 0 316.416 92.39553670473082" height="92.39553670473082" width="316.416"><g transform="matrix(1,0,0,1,0,0)"><svg width="316.416" viewBox="3.8000001907348633 -45.5 184.87998962402344 54.70000076293945" height="92.39553670473082" data-palette-color="url(#55a87d0a-89b6-47cd-9ea7-f32e32ab1089)"><path d="M8.4-2.6L8.4-2.6Q9.15-4.25 10.2-6.85 11.25-9.45 12.4-12.48 13.55-15.5 14.75-18.68 15.95-21.85 17-24.7 18.05-27.55 18.82-29.8 19.6-32.05 19.95-33.25L19.95-33.25Q16.8-31.95 14.55-29.3 12.3-26.65 11.15-22.65L11.15-22.65Q10-23.05 9.05-24.08 8.1-25.1 7.8-26.65L7.8-26.65Q8.3-28.95 9.68-30.85 11.05-32.75 13.15-34.1 15.25-35.45 18-36.18 20.75-36.9 23.9-36.9L23.9-36.9Q27.9-36.9 31.25-35.73 34.6-34.55 37-32.45 39.4-30.35 40.75-27.4 42.1-24.45 42.1-20.85L42.1-20.85Q42.1-15.95 40.3-11.5 38.5-7.05 35.43-3.65 32.35-0.25 28.3 1.78 24.25 3.8 19.8 3.8L19.8 3.8Q15.7 3.8 12.78 2.18 9.85 0.55 8.4-2.6ZM26.05-34.4L26.05-34.4Q23.55-34.4 21.3-33.7L21.3-33.7Q23.5-32.9 24.95-32.02 26.4-31.15 26.95-30.65L26.95-30.65Q26.55-30.1 25.78-28.7 25-27.3 23.98-25.3 22.95-23.3 21.8-20.93 20.65-18.55 19.55-16.05L19.55-16.05Q16.7-9.7 15.43-6.05 14.15-2.4 14.15-1L14.15-1Q14.85-0.75 15.85-0.65 16.85-0.55 18-0.55L18-0.55Q22.05-0.55 25.68-2.43 29.3-4.3 32.02-7.45 34.75-10.6 36.33-14.78 37.9-18.95 37.9-23.55L37.9-23.55Q37.9-28.7 34.7-31.55 31.5-34.4 26.05-34.4ZM43.3-0.85L43.3-0.85Q43.3-2.6 43.65-4.98 44-7.35 44.67-10.05 45.35-12.75 46.27-15.7 47.2-18.65 48.35-21.6L48.35-21.6Q49.35-24.25 50.67-26.95 52-29.65 53.55-32.25 55.1-34.85 56.77-37.2 58.45-39.55 60.15-41.5L60.15-41.5Q60.95-41.5 61.87-41.3 62.8-41.1 63.67-40.78 64.55-40.45 65.27-40 66-39.55 66.45-39.1L66.45-39.1Q62.7-35.25 59.7-31.33 56.7-27.4 54.95-23.95L54.95-23.95Q54-22.05 53.22-20.4 52.45-18.75 51.8-17.13 51.15-15.5 50.62-13.88 50.1-12.25 49.65-10.45L49.65-10.45Q59.25-22.7 63.9-22.7L63.9-22.7Q65.2-22.7 66.7-21.85 68.2-21 69.35-19.55L69.35-19.55Q67.8-17.85 66.15-15.45 64.5-13.05 63.12-10.63 61.75-8.2 60.87-6.13 60-4.05 60-3.05L60-3.05Q60-2.55 60.15-2.38 60.3-2.2 60.8-2.2L60.8-2.2Q61.55-2.2 62-2.4 62.45-2.6 62.55-2.6L62.55-2.6Q62.8-2.2 62.85-2.05 62.9-1.9 62.9-1.8L62.9-1.8Q62.9-1.6 62.3-1.23 61.7-0.85 60.87-0.48 60.05-0.1 59.25 0.2 58.45 0.5 58.05 0.5L58.05 0.5Q57.55 0.5 57.05 0.23 56.55-0.05 56.17-0.5 55.8-0.95 55.57-1.5 55.35-2.05 55.35-2.65L55.35-2.65Q55.35-3.4 55.77-4.88 56.2-6.35 56.95-8.33 57.7-10.3 58.75-12.65 59.8-15 61-17.45L61-17.45Q61-17.65 60.8-17.65L60.8-17.65Q60.65-17.65 60.02-17.25 59.4-16.85 58.85-16.45L58.85-16.45Q57.05-15.1 55.22-13.13 53.4-11.15 51.67-8.8 49.95-6.45 48.42-3.83 46.9-1.2 45.8 1.45L45.8 1.45Q45.65 1.8 45.35 2.1 45.05 2.4 44.85 2.4L44.85 2.4Q44.7 2.4 44.42 2.05 44.15 1.7 43.92 1.18 43.7 0.65 43.5 0.1 43.3-0.45 43.3-0.85ZM115.34-26.95L115.34-26.95Q115.34-24.2 113.97-21.7 112.59-19.2 110.27-17.32 107.94-15.45 104.82-14.35 101.69-13.25 98.19-13.25L98.19-13.25Q96.94-13.25 96.22-13.58 95.49-13.9 94.59-14.85L94.59-14.85Q92.09-9.4 90.52-4.83 88.94-0.25 88.04 4.05L88.04 4.05Q86.14 3.6 84.94 2.48 83.74 1.35 82.74-0.35L82.74-0.35Q83.24-1.3 83.94-2.85 84.64-4.4 85.64-6.68 86.64-8.95 87.97-12.13 89.29-15.3 91.09-19.55L91.09-19.55Q91.89-21.5 92.49-22.95 93.09-24.4 93.54-25.68 93.99-26.95 94.37-28.2 94.74-29.45 95.14-30.95L95.14-30.95Q92.79-30.2 90.82-29.2 88.84-28.2 87.54-27.1L87.54-27.1Q87.09-27.4 86.62-28 86.14-28.6 85.74-29.33 85.34-30.05 85.04-30.8 84.74-31.55 84.69-32.15L84.69-32.15Q86.14-33.15 88.29-34 90.44-34.85 92.89-35.48 95.34-36.1 97.97-36.45 100.59-36.8 102.99-36.8L102.99-36.8Q105.84-36.8 108.14-36.08 110.44-35.35 112.04-34.05 113.64-32.75 114.49-30.95 115.34-29.15 115.34-26.95ZM106.44-32.95L106.44-32.95Q104.54-32.95 102.54-32.65L102.54-32.65 103.14-31.75Q102.64-31.1 101.89-29.8 101.14-28.5 100.24-26.68 99.34-24.85 98.27-22.6 97.19-20.35 95.99-17.85L95.99-17.85Q99.89-17.85 103.09-18.57 106.29-19.3 108.57-20.58 110.84-21.85 112.12-23.55 113.39-25.25 113.39-27.2L113.39-27.2Q113.39-29.8 111.64-31.38 109.89-32.95 106.44-32.95ZM129.24-20.2L129.24-20.2Q129.74-20.2 130.42-20.03 131.09-19.85 131.64-19.58 132.19-19.3 132.57-19 132.94-18.7 132.94-18.45L132.94-18.45Q131.94-16.35 131.09-14.23 130.24-12.1 129.64-10.15 129.04-8.2 128.72-6.5 128.39-4.8 128.39-3.55L128.39-3.55Q128.39-2.15 128.69-1.23 128.99-0.3 129.69 0.1L129.69 0.1Q129.09 0.5 128.14 0.75 127.19 1 126.44 1L126.44 1Q123.74 1 123.74-2.7L123.74-2.7Q123.74-5.55 125.64-10.5L125.64-10.5Q124.64-8.2 123.34-6.18 122.04-4.15 120.69-2.6 119.34-1.05 117.97-0.08 116.59 0.9 115.44 1.1L115.44 1.1Q113.59 1 112.44-0.68 111.29-2.35 111.29-4.95L111.29-4.95Q111.29-7.75 112.49-10.85 113.69-13.95 115.57-16.6 117.44-19.25 119.64-21.03 121.84-22.8 123.89-22.9L123.89-22.9Q124.39-22.75 125.02-22.3 125.64-21.85 126.22-21.25 126.79-20.65 127.19-20.03 127.59-19.4 127.64-18.95L127.64-18.95Q125.64-18.65 123.52-17 121.39-15.35 119.67-13.03 117.94-10.7 116.84-8.05 115.74-5.4 115.74-3.1L115.74-3.1Q115.74-2.15 116.44-1.9L116.44-1.9Q117.89-2.2 119.79-4.38 121.69-6.55 124.39-11.1L124.39-11.1Q124.89-12 125.52-13.1 126.14-14.2 126.79-15.4 127.44-16.6 128.07-17.82 128.69-19.05 129.24-20.2ZM134.29-1L134.29-1Q134.54-2.45 135.16-4.83 135.79-7.2 136.64-9.88 137.49-12.55 138.44-15.25 139.39-17.95 140.29-20.1L140.29-20.1Q140.94-21.65 141.44-22.53 141.94-23.4 142.54-24L142.54-24Q143.24-23.9 143.99-23.65 144.74-23.4 145.44-23.05 146.14-22.7 146.69-22.33 147.24-21.95 147.54-21.6L147.54-21.6Q146.19-20 145.16-17.95 144.14-15.9 143.09-12.7L143.09-12.7Q145.79-15.1 147.86-17.3 149.94-19.5 151.74-22.2L151.74-22.2Q152.04-22.45 152.79-22.45L152.79-22.45Q153.49-22.45 154.14-22.23 154.79-22 155.04-21.6L155.04-21.6Q154.14-19.2 154.14-16.85L154.14-16.85Q154.14-14.65 154.79-13.55L154.79-13.55Q154.74-13.25 154.11-12.4 153.49-11.55 152.74-10.8L152.74-10.8Q151.39-11.5 150.34-12.73 149.29-13.95 148.79-15.4L148.79-15.4Q146.44-13.75 144.79-12.18 143.14-10.6 141.96-8.68 140.79-6.75 139.96-4.25 139.14-1.75 138.39 1.7L138.39 1.7Q137.94 1.65 137.31 1.38 136.69 1.1 136.06 0.7 135.44 0.3 134.94-0.15 134.44-0.6 134.29-1ZM155.69-3.35L155.69-3.35Q155.69-3.8 155.76-4.48 155.84-5.15 156.04-6.28 156.24-7.4 156.56-9 156.89-10.6 157.39-12.85L157.39-12.85Q157.49-13.35 157.84-14.45 158.19-15.55 158.76-16.78 159.34-18 160.16-19.15 160.99-20.3 162.14-20.85L162.14-20.85Q162.99-20.65 164.39-19.83 165.79-19 166.79-17.55L166.79-17.55Q165.64-16.25 164.86-14.95 164.09-13.65 163.46-12.25 162.84-10.85 162.31-9.35 161.79-7.85 161.14-6.2L161.14-6.2Q160.59-4.8 160.14-3.33 159.69-1.85 159.64-0.75L159.64-0.75Q159.64 0.15 159.61 0.53 159.59 0.9 159.34 0.9L159.34 0.9Q159.14 0.9 158.54 0.65 157.94 0.4 157.31-0.13 156.69-0.65 156.19-1.45 155.69-2.25 155.69-3.35ZM165.24-25.05L165.24-25.05Q165.24-25.35 165.39-25.95L165.39-25.95Q165.14-26.2 164.96-26.7 164.79-27.2 164.79-27.6L164.79-27.6Q164.79-28.05 164.91-28.83 165.04-29.6 165.24-30.5 165.44-31.4 165.74-32.38 166.04-33.35 166.34-34.15L166.34-34.15Q166.94-34.15 167.81-33.83 168.69-33.5 169.59-32.98 170.49-32.45 171.24-31.83 171.99-31.2 172.39-30.65L172.39-30.65Q171.84-30.1 170.94-29.13 170.04-28.15 169.19-27.08 168.34-26 167.64-25.05 166.94-24.1 166.74-23.7L166.74-23.7Q166.14-23.8 165.69-24.23 165.24-24.65 165.24-25.05ZM184.68-19.9L184.68-19.9Q184.63-18.95 184.36-17.93 184.08-16.9 183.68-16.07 183.28-15.25 182.83-14.7 182.38-14.15 181.98-14.15L181.98-14.15Q181.43-14.2 181.33-14.9L181.33-14.9Q181.33-15.05 181.46-15.38 181.58-15.7 181.73-16.1 181.88-16.5 182.01-16.9 182.13-17.3 182.13-17.6L182.13-17.6Q182.13-18.3 181.81-18.78 181.48-19.25 180.93-19.25L180.93-19.25Q178.93-19.25 177.88-16.75 176.83-14.25 176.83-9.4L176.83-9.4Q176.83-8.9 176.88-8.8L176.88-8.8Q177.93-8.85 178.76-8.88 179.58-8.9 180.38-8.9L180.38-8.9Q180.43-8.8 180.43-8.5L180.43-8.5Q180.43-8.05 180.23-7.85L180.23-7.85Q179.08-7.6 178.41-7.43 177.73-7.25 177.38-7.1 177.03-6.95 176.96-6.78 176.88-6.6 176.88-6.3L176.88-6.3Q176.88-5.9 176.91-5.5 176.93-5.1 176.93-4.5L176.93-4.5Q176.93-0.3 174.66 2.25 172.38 4.8 168.33 5.2L168.33 5.2Q167.63 5.15 166.88 4.8 166.13 4.45 165.46 3.9 164.78 3.35 164.28 2.68 163.78 2 163.58 1.3L163.58 1.3Q163.58-0.6 164.38-2.33 165.18-4.05 166.56-5.38 167.93-6.7 169.81-7.53 171.68-8.35 173.88-8.5L173.88-8.5Q173.88-9.75 173.63-10.95 173.38-12.15 173.11-13.28 172.83-14.4 172.58-15.48 172.33-16.55 172.33-17.6L172.33-17.6Q172.33-18.95 172.88-20.28 173.43-21.6 174.33-22.73 175.23-23.85 176.43-24.65 177.63-25.45 178.93-25.75L178.93-25.75Q179.48-25.6 180.41-24.88 181.33-24.15 182.23-23.25 183.13-22.35 183.83-21.43 184.53-20.5 184.68-19.9ZM168.18 2.9L168.18 2.9Q169.38 2.4 170.46 1.45 171.53 0.5 172.33-0.7 173.13-1.9 173.61-3.25 174.08-4.6 174.08-5.9L174.08-5.9Q173.08-5.75 171.88-4.98 170.68-4.2 169.63-3.13 168.58-2.05 167.88-0.9 167.18 0.25 167.18 1.1L167.18 1.1Q167.18 2.2 168.18 2.9Z" opacity="1" transform="matrix(1,0,0,1,0,0)" fill="black" class="wordmark-text-0" id="SvgjsPath1674" stroke-width="7" stroke="black" stroke-linejoin="round"></path></svg></g></svg></g></svg></g></svg></g><g></g></svg></g></svg></g></svg></g></mask><g transform="matrix(1,0,0,1,39.55199999999999,77.40223164763458)"><svg viewBox="0 0 316.416 92.39553670473082" height="92.39553670473082" width="316.416"><g><svg viewBox="0 0 316.416 92.39553670473082" height="92.39553670473082" width="316.416"><g><svg viewBox="0 0 316.416 92.39553670473082" height="92.39553670473082" width="316.416"><g><svg viewBox="0 0 316.416 92.39553670473082" height="92.39553670473082" width="316.416"><g id="textblocktransform"><svg viewBox="0 0 316.416 92.39553670473082" height="92.39553670473082" width="316.416" id="textblock"><g><svg viewBox="0 0 316.416 92.39553670473082" height="92.39553670473082" width="316.416"><g transform="matrix(1,0,0,1,0,0)"><svg width="316.416" viewBox="3.8000001907348633 -45.5 184.87998962402344 54.70000076293945" height="92.39553670473082" data-palette-color="url(#55a87d0a-89b6-47cd-9ea7-f32e32ab1089)"></svg></g></svg></g></svg></g></svg></g><g></g></svg></g></svg></g></svg></g><g mask="url(#11940cd5-49d4-4d75-98fc-439da6f61be1)"><g transform="matrix(2.7244444444444444, 0, 0, 2.7244444444444444, 75.16, 1)"><svg xmlns="http://www.w3.org/2000/svg" xmlns:xlink="http://www.w3.org/1999/xlink" version="1.1" x="0" y="0" viewBox="5 5 90 90" enable-background="new 0 0 100 100" xml:space="preserve" height="90" width="90" class="icon-none" data-fill-palette-color="accent" id="none"></svg></g></g></svg></g><defs></defs><mask id="26e596e8-39b9-4eda-ad7c-a7d2bd19e12f"><g id="SvgjsG1686"><svg viewBox="0 0 395.52 247.2" height="247.2" width="395.52"><g><svg></svg></g><g><svg viewBox="0 0 395.52 247.2" height="247.2" width="395.52"><mask id="SvgjsMask1685"><g transform="matrix(1,0,0,1,39.55199999999999,77.40223164763458)"><svg viewBox="0 0 316.416 92.39553670473082" height="92.39553670473082" width="316.416"><g><svg viewBox="0 0 316.416 92.39553670473082" height="92.39553670473082" width="316.416"><g><svg viewBox="0 0 316.416 92.39553670473082" height="92.39553670473082" width="316.416"><g><svg viewBox="0 0 316.416 92.39553670473082" height="92.39553670473082" width="316.416"><g id="SvgjsG1684"><svg viewBox="0 0 316.416 92.39553670473082" height="92.39553670473082" width="316.416" id="SvgjsSvg1683"><g><svg viewBox="0 0 316.416 92.39553670473082" height="92.39553670473082" width="316.416"><g transform="matrix(1,0,0,1,0,0)"><svg width="316.416" viewBox="3.8000001907348633 -45.5 184.87998962402344 54.70000076293945" height="92.39553670473082" data-palette-color="url(#55a87d0a-89b6-47cd-9ea7-f32e32ab1089)"></svg></g></svg></g></svg></g></svg></g><g></g></svg></g></svg></g></svg></g></mask><g transform="matrix(1,0,0,1,39.55199999999999,77.40223164763458)"><svg viewBox="0 0 316.416 92.39553670473082" height="92.39553670473082" width="316.416"><g><svg viewBox="0 0 316.416 92.39553670473082" height="92.39553670473082" width="316.416"><g><svg viewBox="0 0 316.416 92.39553670473082" height="92.39553670473082" width="316.416"><g><svg viewBox="0 0 316.416 92.39553670473082" height="92.39553670473082" width="316.416"><g id="SvgjsG1681"><svg viewBox="0 0 316.416 92.39553670473082" height="92.39553670473082" width="316.416" id="SvgjsSvg1680"><g><svg viewBox="0 0 316.416 92.39553670473082" height="92.39553670473082" width="316.416"><g transform="matrix(1,0,0,1,0,0)"><svg width="316.416" viewBox="3.8000001907348633 -45.5 184.87998962402344 54.70000076293945" height="92.39553670473082" data-palette-color="url(#55a87d0a-89b6-47cd-9ea7-f32e32ab1089)"><path d="M8.4-2.6L8.4-2.6Q9.15-4.25 10.2-6.85 11.25-9.45 12.4-12.48 13.55-15.5 14.75-18.68 15.95-21.85 17-24.7 18.05-27.55 18.82-29.8 19.6-32.05 19.95-33.25L19.95-33.25Q16.8-31.95 14.55-29.3 12.3-26.65 11.15-22.65L11.15-22.65Q10-23.05 9.05-24.08 8.1-25.1 7.8-26.65L7.8-26.65Q8.3-28.95 9.68-30.85 11.05-32.75 13.15-34.1 15.25-35.45 18-36.18 20.75-36.9 23.9-36.9L23.9-36.9Q27.9-36.9 31.25-35.73 34.6-34.55 37-32.45 39.4-30.35 40.75-27.4 42.1-24.45 42.1-20.85L42.1-20.85Q42.1-15.95 40.3-11.5 38.5-7.05 35.43-3.65 32.35-0.25 28.3 1.78 24.25 3.8 19.8 3.8L19.8 3.8Q15.7 3.8 12.78 2.18 9.85 0.55 8.4-2.6ZM26.05-34.4L26.05-34.4Q23.55-34.4 21.3-33.7L21.3-33.7Q23.5-32.9 24.95-32.02 26.4-31.15 26.95-30.65L26.95-30.65Q26.55-30.1 25.78-28.7 25-27.3 23.98-25.3 22.95-23.3 21.8-20.93 20.65-18.55 19.55-16.05L19.55-16.05Q16.7-9.7 15.43-6.05 14.15-2.4 14.15-1L14.15-1Q14.85-0.75 15.85-0.65 16.85-0.55 18-0.55L18-0.55Q22.05-0.55 25.68-2.43 29.3-4.3 32.02-7.45 34.75-10.6 36.33-14.78 37.9-18.95 37.9-23.55L37.9-23.55Q37.9-28.7 34.7-31.55 31.5-34.4 26.05-34.4ZM43.3-0.85L43.3-0.85Q43.3-2.6 43.65-4.98 44-7.35 44.67-10.05 45.35-12.75 46.27-15.7 47.2-18.65 48.35-21.6L48.35-21.6Q49.35-24.25 50.67-26.95 52-29.65 53.55-32.25 55.1-34.85 56.77-37.2 58.45-39.55 60.15-41.5L60.15-41.5Q60.95-41.5 61.87-41.3 62.8-41.1 63.67-40.78 64.55-40.45 65.27-40 66-39.55 66.45-39.1L66.45-39.1Q62.7-35.25 59.7-31.33 56.7-27.4 54.95-23.95L54.95-23.95Q54-22.05 53.22-20.4 52.45-18.75 51.8-17.13 51.15-15.5 50.62-13.88 50.1-12.25 49.65-10.45L49.65-10.45Q59.25-22.7 63.9-22.7L63.9-22.7Q65.2-22.7 66.7-21.85 68.2-21 69.35-19.55L69.35-19.55Q67.8-17.85 66.15-15.45 64.5-13.05 63.12-10.63 61.75-8.2 60.87-6.13 60-4.05 60-3.05L60-3.05Q60-2.55 60.15-2.38 60.3-2.2 60.8-2.2L60.8-2.2Q61.55-2.2 62-2.4 62.45-2.6 62.55-2.6L62.55-2.6Q62.8-2.2 62.85-2.05 62.9-1.9 62.9-1.8L62.9-1.8Q62.9-1.6 62.3-1.23 61.7-0.85 60.87-0.48 60.05-0.1 59.25 0.2 58.45 0.5 58.05 0.5L58.05 0.5Q57.55 0.5 57.05 0.23 56.55-0.05 56.17-0.5 55.8-0.95 55.57-1.5 55.35-2.05 55.35-2.65L55.35-2.65Q55.35-3.4 55.77-4.88 56.2-6.35 56.95-8.33 57.7-10.3 58.75-12.65 59.8-15 61-17.45L61-17.45Q61-17.65 60.8-17.65L60.8-17.65Q60.65-17.65 60.02-17.25 59.4-16.85 58.85-16.45L58.85-16.45Q57.05-15.1 55.22-13.13 53.4-11.15 51.67-8.8 49.95-6.45 48.42-3.83 46.9-1.2 45.8 1.45L45.8 1.45Q45.65 1.8 45.35 2.1 45.05 2.4 44.85 2.4L44.85 2.4Q44.7 2.4 44.42 2.05 44.15 1.7 43.92 1.18 43.7 0.65 43.5 0.1 43.3-0.45 43.3-0.85ZM115.34-26.95L115.34-26.95Q115.34-24.2 113.97-21.7 112.59-19.2 110.27-17.32 107.94-15.45 104.82-14.35 101.69-13.25 98.19-13.25L98.19-13.25Q96.94-13.25 96.22-13.58 95.49-13.9 94.59-14.85L94.59-14.85Q92.09-9.4 90.52-4.83 88.94-0.25 88.04 4.05L88.04 4.05Q86.14 3.6 84.94 2.48 83.74 1.35 82.74-0.35L82.74-0.35Q83.24-1.3 83.94-2.85 84.64-4.4 85.64-6.68 86.64-8.95 87.97-12.13 89.29-15.3 91.09-19.55L91.09-19.55Q91.89-21.5 92.49-22.95 93.09-24.4 93.54-25.68 93.99-26.95 94.37-28.2 94.74-29.45 95.14-30.95L95.14-30.95Q92.79-30.2 90.82-29.2 88.84-28.2 87.54-27.1L87.54-27.1Q87.09-27.4 86.62-28 86.14-28.6 85.74-29.33 85.34-30.05 85.04-30.8 84.74-31.55 84.69-32.15L84.69-32.15Q86.14-33.15 88.29-34 90.44-34.85 92.89-35.48 95.34-36.1 97.97-36.45 100.59-36.8 102.99-36.8L102.99-36.8Q105.84-36.8 108.14-36.08 110.44-35.35 112.04-34.05 113.64-32.75 114.49-30.95 115.34-29.15 115.34-26.95ZM106.44-32.95L106.44-32.95Q104.54-32.95 102.54-32.65L102.54-32.65 103.14-31.75Q102.64-31.1 101.89-29.8 101.14-28.5 100.24-26.68 99.34-24.85 98.27-22.6 97.19-20.35 95.99-17.85L95.99-17.85Q99.89-17.85 103.09-18.57 106.29-19.3 108.57-20.58 110.84-21.85 112.12-23.55 113.39-25.25 113.39-27.2L113.39-27.2Q113.39-29.8 111.64-31.38 109.89-32.95 106.44-32.95ZM129.24-20.2L129.24-20.2Q129.74-20.2 130.42-20.03 131.09-19.85 131.64-19.58 132.19-19.3 132.57-19 132.94-18.7 132.94-18.45L132.94-18.45Q131.94-16.35 131.09-14.23 130.24-12.1 129.64-10.15 129.04-8.2 128.72-6.5 128.39-4.8 128.39-3.55L128.39-3.55Q128.39-2.15 128.69-1.23 128.99-0.3 129.69 0.1L129.69 0.1Q129.09 0.5 128.14 0.75 127.19 1 126.44 1L126.44 1Q123.74 1 123.74-2.7L123.74-2.7Q123.74-5.55 125.64-10.5L125.64-10.5Q124.64-8.2 123.34-6.18 122.04-4.15 120.69-2.6 119.34-1.05 117.97-0.08 116.59 0.9 115.44 1.1L115.44 1.1Q113.59 1 112.44-0.68 111.29-2.35 111.29-4.95L111.29-4.95Q111.29-7.75 112.49-10.85 113.69-13.95 115.57-16.6 117.44-19.25 119.64-21.03 121.84-22.8 123.89-22.9L123.89-22.9Q124.39-22.75 125.02-22.3 125.64-21.85 126.22-21.25 126.79-20.65 127.19-20.03 127.59-19.4 127.64-18.95L127.64-18.95Q125.64-18.65 123.52-17 121.39-15.35 119.67-13.03 117.94-10.7 116.84-8.05 115.74-5.4 115.74-3.1L115.74-3.1Q115.74-2.15 116.44-1.9L116.44-1.9Q117.89-2.2 119.79-4.38 121.69-6.55 124.39-11.1L124.39-11.1Q124.89-12 125.52-13.1 126.14-14.2 126.79-15.4 127.44-16.6 128.07-17.82 128.69-19.05 129.24-20.2ZM134.29-1L134.29-1Q134.54-2.45 135.16-4.83 135.79-7.2 136.64-9.88 137.49-12.55 138.44-15.25 139.39-17.95 140.29-20.1L140.29-20.1Q140.94-21.65 141.44-22.53 141.94-23.4 142.54-24L142.54-24Q143.24-23.9 143.99-23.65 144.74-23.4 145.44-23.05 146.14-22.7 146.69-22.33 147.24-21.95 147.54-21.6L147.54-21.6Q146.19-20 145.16-17.95 144.14-15.9 143.09-12.7L143.09-12.7Q145.79-15.1 147.86-17.3 149.94-19.5 151.74-22.2L151.74-22.2Q152.04-22.45 152.79-22.45L152.79-22.45Q153.49-22.45 154.14-22.23 154.79-22 155.04-21.6L155.04-21.6Q154.14-19.2 154.14-16.85L154.14-16.85Q154.14-14.65 154.79-13.55L154.79-13.55Q154.74-13.25 154.11-12.4 153.49-11.55 152.74-10.8L152.74-10.8Q151.39-11.5 150.34-12.73 149.29-13.95 148.79-15.4L148.79-15.4Q146.44-13.75 144.79-12.18 143.14-10.6 141.96-8.68 140.79-6.75 139.96-4.25 139.14-1.75 138.39 1.7L138.39 1.7Q137.94 1.65 137.31 1.38 136.69 1.1 136.06 0.7 135.44 0.3 134.94-0.15 134.44-0.6 134.29-1ZM155.69-3.35L155.69-3.35Q155.69-3.8 155.76-4.48 155.84-5.15 156.04-6.28 156.24-7.4 156.56-9 156.89-10.6 157.39-12.85L157.39-12.85Q157.49-13.35 157.84-14.45 158.19-15.55 158.76-16.78 159.34-18 160.16-19.15 160.99-20.3 162.14-20.85L162.14-20.85Q162.99-20.65 164.39-19.83 165.79-19 166.79-17.55L166.79-17.55Q165.64-16.25 164.86-14.95 164.09-13.65 163.46-12.25 162.84-10.85 162.31-9.35 161.79-7.85 161.14-6.2L161.14-6.2Q160.59-4.8 160.14-3.33 159.69-1.85 159.64-0.75L159.64-0.75Q159.64 0.15 159.61 0.53 159.59 0.9 159.34 0.9L159.34 0.9Q159.14 0.9 158.54 0.65 157.94 0.4 157.31-0.13 156.69-0.65 156.19-1.45 155.69-2.25 155.69-3.35ZM165.24-25.05L165.24-25.05Q165.24-25.35 165.39-25.95L165.39-25.95Q165.14-26.2 164.96-26.7 164.79-27.2 164.79-27.6L164.79-27.6Q164.79-28.05 164.91-28.83 165.04-29.6 165.24-30.5 165.44-31.4 165.74-32.38 166.04-33.35 166.34-34.15L166.34-34.15Q166.94-34.15 167.81-33.83 168.69-33.5 169.59-32.98 170.49-32.45 171.24-31.83 171.99-31.2 172.39-30.65L172.39-30.65Q171.84-30.1 170.94-29.13 170.04-28.15 169.19-27.08 168.34-26 167.64-25.05 166.94-24.1 166.74-23.7L166.74-23.7Q166.14-23.8 165.69-24.23 165.24-24.65 165.24-25.05ZM184.68-19.9L184.68-19.9Q184.63-18.95 184.36-17.93 184.08-16.9 183.68-16.07 183.28-15.25 182.83-14.7 182.38-14.15 181.98-14.15L181.98-14.15Q181.43-14.2 181.33-14.9L181.33-14.9Q181.33-15.05 181.46-15.38 181.58-15.7 181.73-16.1 181.88-16.5 182.01-16.9 182.13-17.3 182.13-17.6L182.13-17.6Q182.13-18.3 181.81-18.78 181.48-19.25 180.93-19.25L180.93-19.25Q178.93-19.25 177.88-16.75 176.83-14.25 176.83-9.4L176.83-9.4Q176.83-8.9 176.88-8.8L176.88-8.8Q177.93-8.85 178.76-8.88 179.58-8.9 180.38-8.9L180.38-8.9Q180.43-8.8 180.43-8.5L180.43-8.5Q180.43-8.05 180.23-7.85L180.23-7.85Q179.08-7.6 178.41-7.43 177.73-7.25 177.38-7.1 177.03-6.95 176.96-6.78 176.88-6.6 176.88-6.3L176.88-6.3Q176.88-5.9 176.91-5.5 176.93-5.1 176.93-4.5L176.93-4.5Q176.93-0.3 174.66 2.25 172.38 4.8 168.33 5.2L168.33 5.2Q167.63 5.15 166.88 4.8 166.13 4.45 165.46 3.9 164.78 3.35 164.28 2.68 163.78 2 163.58 1.3L163.58 1.3Q163.58-0.6 164.38-2.33 165.18-4.05 166.56-5.38 167.93-6.7 169.81-7.53 171.68-8.35 173.88-8.5L173.88-8.5Q173.88-9.75 173.63-10.95 173.38-12.15 173.11-13.28 172.83-14.4 172.58-15.48 172.33-16.55 172.33-17.6L172.33-17.6Q172.33-18.95 172.88-20.28 173.43-21.6 174.33-22.73 175.23-23.85 176.43-24.65 177.63-25.45 178.93-25.75L178.93-25.75Q179.48-25.6 180.41-24.88 181.33-24.15 182.23-23.25 183.13-22.35 183.83-21.43 184.53-20.5 184.68-19.9ZM168.18 2.9L168.18 2.9Q169.38 2.4 170.46 1.45 171.53 0.5 172.33-0.7 173.13-1.9 173.61-3.25 174.08-4.6 174.08-5.9L174.08-5.9Q173.08-5.75 171.88-4.98 170.68-4.2 169.63-3.13 168.58-2.05 167.88-0.9 167.18 0.25 167.18 1.1L167.18 1.1Q167.18 2.2 168.18 2.9Z" opacity="1" transform="matrix(1,0,0,1,0,0)" fill="white" class="wordmark-text-0" id="SvgjsPath1679"></path></svg></g></svg></g></svg></g></svg></g><g></g></svg></g></svg></g></svg></g><g mask="url(#11940cd5-49d4-4d75-98fc-439da6f61be1)"><g transform="matrix(2.7244444444444444, 0, 0, 2.7244444444444444, 75.16, 1)"><svg xmlns="http://www.w3.org/2000/svg" xmlns:xlink="http://www.w3.org/1999/xlink" version="1.1" x="0" y="0" viewBox="5 5 90 90" enable-background="new 0 0 100 100" xml:space="preserve" height="90" width="90" class="icon-none" data-fill-palette-color="accent" id="SvgjsSvg1678"></svg></g></g></svg></g><defs><mask></mask></defs></svg></g></mask><linearGradient x1="0.054" x2="0.941" y1="0.5" y2="0.5" id="55a87d0a-89b6-47cd-9ea7-f32e32ab1089"><stop stop-color="#864d25" offset="0"></stop><stop stop-color="#f1c4b3" offset="0.498"></stop><stop stop-color="#864d25" offset="1"></stop></linearGradient><rect width="395.5199890136719" height="247.1999969482422" fill="url(#55a87d0a-89b6-47cd-9ea7-f32e32ab1089)" mask="url(#26e596e8-39b9-4eda-ad7c-a7d2bd19e12f)" data-fill-palette-color="primary"></rect><mask id="840936ee-1900-4dc3-b6e8-732eaa31a0ce"><g id="SvgjsG1702"><svg viewBox="0 0 395.52 247.2" height="247.2" width="395.52"><g><svg></svg></g><g><svg viewBox="0 0 395.52 247.2" height="247.2" width="395.52"><mask id="SvgjsMask1701"><g transform="matrix(1,0,0,1,39.55199999999999,77.40223164763458)"><svg viewBox="0 0 316.416 92.39553670473082" height="92.39553670473082" width="316.416"><g><svg viewBox="0 0 316.416 92.39553670473082" height="92.39553670473082" width="316.416"><g><svg viewBox="0 0 316.416 92.39553670473082" height="92.39553670473082" width="316.416"><g><svg viewBox="0 0 316.416 92.39553670473082" height="92.39553670473082" width="316.416"><g id="SvgjsG1700"><svg viewBox="0 0 316.416 92.39553670473082" height="92.39553670473082" width="316.416" id="SvgjsSvg1699"><g><svg viewBox="0 0 316.416 92.39553670473082" height="92.39553670473082" width="316.416"><g transform="matrix(1,0,0,1,0,0)"><svg width="316.416" viewBox="3.8000001907348633 -45.5 184.87998962402344 54.70000076293945" height="92.39553670473082" data-palette-color="url(#55a87d0a-89b6-47cd-9ea7-f32e32ab1089)"></svg></g></svg></g></svg></g></svg></g><g></g></svg></g></svg></g></svg></g></mask><g transform="matrix(1,0,0,1,39.55199999999999,77.40223164763458)"><svg viewBox="0 0 316.416 92.39553670473082" height="92.39553670473082" width="316.416"><g><svg viewBox="0 0 316.416 92.39553670473082" height="92.39553670473082" width="316.416"><g><svg viewBox="0 0 316.416 92.39553670473082" height="92.39553670473082" width="316.416"><g><svg viewBox="0 0 316.416 92.39553670473082" height="92.39553670473082" width="316.416"><g id="SvgjsG1697"><svg viewBox="0 0 316.416 92.39553670473082" height="92.39553670473082" width="316.416" id="SvgjsSvg1696"><g><svg viewBox="0 0 316.416 92.39553670473082" height="92.39553670473082" width="316.416"><g transform="matrix(1,0,0,1,0,0)"><svg width="316.416" viewBox="3.8000001907348633 -45.5 184.87998962402344 54.70000076293945" height="92.39553670473082" data-palette-color="url(#55a87d0a-89b6-47cd-9ea7-f32e32ab1089)"></svg></g></svg></g></svg></g></svg></g><g></g></svg></g></svg></g></svg></g><g mask="url(#11940cd5-49d4-4d75-98fc-439da6f61be1)"><g transform="matrix(2.7244444444444444, 0, 0, 2.7244444444444444, 75.16, 1)"><svg xmlns="http://www.w3.org/2000/svg" xmlns:xlink="http://www.w3.org/1999/xlink" version="1.1" x="0" y="0" viewBox="5 5 90 90" enable-background="new 0 0 100 100" xml:space="preserve" height="90" width="90" class="icon-none" data-fill-palette-color="accent" id="SvgjsSvg1695"><g fill="white"><path fill="white" d="M37.519 74.552h-6.794c-0.042 0-0.075 0.034-0.075 0.075v3.351c0 0.042 0.034 0.075 0.075 0.075h6.794c0.042 0 0.075-0.034 0.075-0.075v-3.351C37.595 74.586 37.561 74.552 37.519 74.552zM37.444 77.903h-6.643v-3.2h6.643V77.903zM75.219 78.473c2.009 0 3.644-1.635 3.644-3.644 0-2.009-1.635-3.644-3.644-3.644-2.009 0-3.644 1.635-3.644 3.644C71.575 76.838 73.21 78.473 75.219 78.473zM75.219 71.336c1.926 0 3.493 1.567 3.493 3.493 0 1.926-1.567 3.493-3.493 3.493-1.926 0-3.493-1.567-3.493-3.493C71.726 72.903 73.293 71.336 75.219 71.336zM64.592 79.223h2.795c0.042 0 0.075-0.034 0.075-0.076v-3.863l0-0.001 0-0.001c-0.017-1.058-0.552-2.042-1.431-2.631-0.004-0.003-0.009-0.001-0.014-0.003-0.01-0.004-0.018-0.006-0.029-0.006-0.01 0-0.018 0.002-0.027 0.006-0.005 0.002-0.01 0-0.014 0.003-0.878 0.589-1.413 1.573-1.431 2.631l0 0.001 0 0.001v3.863C64.517 79.189 64.551 79.223 64.592 79.223zM65.99 72.809c0.812 0.565 1.306 1.485 1.322 2.476v3.787h-2.644v-3.787C64.684 74.295 65.178 73.374 65.99 72.809zM63.736 86.864c0 0.042 0.034 0.075 0.075 0.075h4.357c0.042 0 0.076-0.034 0.076-0.075v-4.475c0-0.001-0.001-0.002-0.002-0.004 0-0.001 0.001-0.002 0.001-0.004-0.066-0.679-0.501-1.257-1.135-1.509 0 0 0 0 0 0 0 0-0.001-0.001-0.002-0.001-0.011-0.005-0.023-0.001-0.035 0-0.007 0.001-0.014-0.003-0.02 0 0 0-0.001 0-0.001 0.001-0.001 0-0.001 0.001-0.002 0.001-0.531 0.211-0.907 0.657-1.058 1.193-0.151-0.537-0.528-0.982-1.059-1.194 0 0 0 0 0 0-0.001 0-0.001-0.001-0.002-0.001-0.011-0.005-0.023-0.001-0.035 0-0.007 0.001-0.014-0.003-0.02 0 0 0-0.001 0-0.001 0-0.001 0.001-0.002 0.001-0.003 0.002-0.633 0.252-1.068 0.83-1.133 1.509 0 0.001 0.001 0.002 0.001 0.004 0 0.001-0.002 0.002-0.002 0.004V86.864zM67.079 81.026c0.566 0.237 0.954 0.756 1.014 1.368v4.394h-2.028v-4.394C66.125 81.782 66.513 81.263 67.079 81.026zM64.901 81.026c0.565 0.237 0.954 0.756 1.014 1.368v4.394h-2.027v-4.394C63.946 81.782 64.335 81.263 64.901 81.026zM63.736 66.99c0 0.042 0.034 0.076 0.075 0.076h4.357c0.042 0 0.076-0.034 0.076-0.076v-4.476c0-0.001-0.001-0.002-0.002-0.004 0-0.001 0.001-0.002 0.001-0.004-0.066-0.679-0.5-1.257-1.134-1.509l-0.002-0.001c0 0-0.001-0.001-0.001-0.001-0.017-0.008-0.035-0.006-0.052 0-0.001 0-0.002-0.001-0.003 0l0 0c-0.002 0.001-0.003 0.002-0.004 0.002-0.53 0.212-0.906 0.657-1.057 1.193-0.151-0.537-0.528-0.982-1.059-1.194-0.001 0-0.001-0.001-0.002-0.001 0 0-0.001-0.001-0.001-0.001-0.017-0.008-0.035-0.006-0.052 0-0.001 0-0.002 0-0.003 0l0 0c-0.002 0.001-0.003 0.002-0.005 0.003-0.633 0.253-1.067 0.83-1.132 1.508 0 0.001 0.001 0.002 0.001 0.004 0 0.001-0.002 0.002-0.002 0.004V66.99zM67.079 61.152c0.565 0.237 0.954 0.756 1.014 1.368v4.394h-2.028V62.52C66.125 61.908 66.514 61.389 67.079 61.152zM64.901 61.152c0.565 0.237 0.954 0.756 1.014 1.368v4.394h-2.027V62.52C63.946 61.908 64.335 61.389 64.901 61.152zM82.194 66.99c0 0.042 0.034 0.076 0.076 0.076h4.357c0.042 0 0.076-0.034 0.076-0.076v-4.476c0-0.001-0.001-0.002-0.002-0.004 0-0.001 0.001-0.002 0.001-0.004-0.065-0.679-0.5-1.256-1.133-1.509-0.001 0-0.001-0.001-0.002-0.001 0 0-0.001-0.001-0.001-0.001-0.017-0.008-0.036-0.006-0.052 0-0.001 0-0.002 0-0.003 0l0 0c-0.002 0.001-0.003 0.002-0.005 0.003-0.53 0.212-0.905 0.656-1.056 1.192-0.151-0.537-0.528-0.982-1.059-1.193 0 0-0.001 0-0.001-0.001 0 0-0.001-0.001-0.001-0.001-0.017-0.008-0.035-0.006-0.052 0-0.001 0-0.002 0-0.003 0 0 0 0 0 0 0-0.002 0.001-0.003 0.002-0.005 0.003-0.632 0.253-1.066 0.83-1.132 1.508 0 0.001 0.001 0.002 0.001 0.004 0 0.001-0.002 0.002-0.002 0.004V66.99zM85.537 61.152c0.565 0.237 0.954 0.756 1.014 1.368v4.394h-2.027V62.52C84.583 61.908 84.971 61.389 85.537 61.152zM83.358 61.152c0.565 0.237 0.954 0.756 1.014 1.368v4.394h-2.027V62.52C82.404 61.908 82.793 61.389 83.358 61.152zM71.875 66.99c0 0.042 0.034 0.076 0.076 0.076h6.536c0.042 0 0.075-0.034 0.075-0.076v-4.476c0-0.001-0.001-0.002-0.002-0.004 0-0.001 0.001-0.002 0.001-0.004-0.066-0.679-0.5-1.257-1.133-1.509-0.001 0-0.001-0.001-0.002-0.001 0 0-0.001-0.001-0.001-0.001-0.018-0.008-0.036-0.006-0.052 0-0.001 0-0.002 0-0.003 0 0 0 0 0 0 0-0.002 0.001-0.003 0.002-0.005 0.003-0.53 0.212-0.905 0.656-1.056 1.192-0.151-0.536-0.528-0.982-1.058-1.193-0.001 0-0.001-0.001-0.001-0.001-0.001-0.001-0.002-0.001-0.002-0.001-0.018-0.008-0.036-0.006-0.052 0-0.001 0-0.002 0-0.003 0l0 0c-0.002 0.001-0.003 0.002-0.005 0.003-0.53 0.212-0.905 0.656-1.056 1.191-0.151-0.536-0.527-0.981-1.058-1.193-0.001 0-0.001-0.001-0.002-0.001 0 0-0.001-0.001-0.001-0.001-0.017-0.008-0.035-0.006-0.052 0-0.001 0-0.002 0-0.003 0l0 0c-0.002 0.001-0.003 0.002-0.005 0.003-0.632 0.253-1.066 0.83-1.132 1.508 0 0.001 0.001 0.002 0.001 0.004 0 0.001-0.002 0.002-0.002 0.004V66.99zM77.397 61.152c0.565 0.237 0.954 0.756 1.014 1.368v4.394h-2.028V62.52C76.443 61.908 76.832 61.389 77.397 61.152zM75.219 61.152c0.565 0.237 0.954 0.756 1.014 1.368v4.394h-2.027V62.52C74.264 61.908 74.653 61.389 75.219 61.152zM73.04 61.152c0.565 0.237 0.954 0.756 1.014 1.368v4.394h-2.027V62.52C72.086 61.908 72.474 61.389 73.04 61.152zM50 5C25.187 5 5 25.187 5 50s20.187 45 45 45 45-20.187 45-45S74.813 5 50 5zM23.52 64.293h15.058v3.912H10.517c-0.589-1.272-1.118-2.577-1.584-3.912H23.52zM40.394 84.44h0.332v1.181h-0.332V84.44zM40.877 84.44h1.689v1.181h-1.689V84.44zM44.796 69.014h0.529v1.522l-0.529-0.777V69.014zM47.821 23.531h0.604v1.514l-0.604-0.919V23.531zM50 19.197c0.863 0.259 1.49 1.004 1.611 1.886h-3.222C48.51 20.201 49.137 19.456 50 19.197zM52.18 24.126l-0.604 0.92v-1.514h0.604V24.126zM55.204 69.758l-0.529 0.778v-1.522h0.529V69.758zM59.606 85.621h-0.332V84.44h0.332V85.621zM59.123 85.621h-1.689V84.44h1.689V85.621zM62.952 41.682l0.997 3.941h-1.994L62.952 41.682zM61.879 49.372v-3.221h2.145v3.221H61.879zM61.879 49.9H70.1v9.224h-1.857v-7.338c0-0.001-0.001-0.002-0.002-0.004 0-0.001 0.001-0.002 0.001-0.004-0.066-0.679-0.501-1.257-1.134-1.51l0 0c-0.001 0-0.001-0.001-0.002-0.001-0.013-0.005-0.025-0.001-0.037 0-0.006 0.001-0.012-0.003-0.019 0l-0.001 0.001c-0.001 0-0.002 0.001-0.003 0.002-0.53 0.212-0.906 0.657-1.058 1.193-0.151-0.537-0.528-0.982-1.059-1.194 0 0 0 0 0 0l-0.002-0.001c-0.013-0.005-0.025-0.001-0.037 0-0.006 0.001-0.012-0.003-0.019 0 0 0-0.001 0-0.001 0-0.001 0.001-0.002 0.001-0.003 0.001-0.633 0.253-1.068 0.831-1.133 1.509 0 0.001 0.001 0.002 0.001 0.004 0 0.001-0.002 0.002-0.002 0.004v7.338h-1.857V49.9zM63.887 51.792c0.06-0.612 0.448-1.131 1.014-1.368 0.566 0.237 0.954 0.757 1.014 1.368v7.332h-2.027V51.792zM66.065 51.792c0.06-0.612 0.448-1.131 1.014-1.368 0.566 0.237 0.954 0.757 1.014 1.368v7.332h-2.028V51.792zM70.1 59.652v8.464h-8.221v-8.464H70.1zM80.337 49.9h8.222v9.224h-1.857v-7.338c0-0.001-0.001-0.002-0.002-0.004 0-0.001 0.001-0.002 0.001-0.004-0.065-0.679-0.5-1.257-1.134-1.51 0 0 0 0 0 0-0.001 0-0.002-0.001-0.002-0.001-0.013-0.005-0.025-0.001-0.037 0-0.006 0.001-0.012-0.003-0.019 0l-0.001 0.001c-0.001 0.001-0.002 0.001-0.003 0.002-0.53 0.212-0.906 0.657-1.057 1.193-0.152-0.537-0.529-0.984-1.061-1.195-0.013-0.005-0.025-0.001-0.037 0-0.006 0.001-0.012-0.003-0.019 0 0 0-0.001 0-0.001 0.001-0.001 0.001-0.002 0.001-0.003 0.002-0.633 0.253-1.067 0.83-1.132 1.509 0 0.001 0.001 0.002 0.001 0.004 0 0.001-0.002 0.002-0.002 0.004v7.338h-1.857V49.9zM87.486 41.682l0.997 3.942h-1.995L87.486 41.682zM86.413 46.151h2.145v3.221h-2.145V46.151zM82.345 51.792c0.06-0.612 0.448-1.131 1.014-1.368 0.566 0.237 0.954 0.757 1.014 1.368v7.332h-2.027V51.792zM84.523 51.792c0.06-0.612 0.448-1.131 1.014-1.368 0.566 0.237 0.954 0.757 1.014 1.368v7.332h-2.027V51.792zM88.558 59.652v8.464h-8.222v-8.464H88.558zM83.126 78.136v-2.85c0.016-0.991 0.51-1.911 1.322-2.476 0.671 0.467 1.12 1.177 1.266 1.968C84.905 75.94 84.041 77.06 83.126 78.136zM84.49 72.652c-0.004-0.003-0.009-0.001-0.014-0.003-0.01-0.004-0.018-0.006-0.029-0.006-0.01 0-0.018 0.002-0.027 0.006-0.005 0.002-0.01 0-0.014 0.003-0.878 0.589-1.413 1.573-1.431 2.631l0 0.001 0 0.001v3.026c-0.449 0.522-0.91 1.033-1.383 1.534h-0.225v-4.559c0-0.005-0.004-0.008-0.005-0.013 0.001-0.005 0.006-0.008 0.006-0.013 0.066-1.985 1.281-3.782 3.096-4.585 1.049 0.479 1.904 1.293 2.442 2.298-0.346 0.554-0.702 1.1-1.072 1.637C85.651 73.818 85.178 73.114 84.49 72.652zM72.026 82.394c0.06-0.612 0.448-1.132 1.014-1.368 0.566 0.237 0.954 0.756 1.014 1.368v3.817c-0.296 0.197-0.598 0.387-0.899 0.577h-1.128V82.394zM74.205 86.115v-3.72c0.06-0.612 0.448-1.132 1.014-1.368 0.565 0.237 0.954 0.756 1.014 1.368v2.267C75.57 85.164 74.896 85.65 74.205 86.115zM76.383 82.394c0.06-0.612 0.448-1.132 1.014-1.368 0.565 0.237 0.954 0.756 1.014 1.368v0.493c-0.66 0.571-1.334 1.125-2.028 1.656V82.394zM78.561 82.385c0-0.001 0.001-0.002 0.001-0.004-0.066-0.679-0.5-1.257-1.134-1.509 0 0-0.001 0-0.001-0.001-0.001 0-0.001-0.001-0.002-0.001-0.012-0.005-0.023-0.001-0.035 0-0.007 0.001-0.014-0.003-0.02 0 0 0-0.001 0-0.001 0-0.002 0.001-0.002 0.001-0.004 0.002-0.53 0.212-0.906 0.656-1.057 1.192-0.151-0.537-0.528-0.982-1.059-1.193 0 0-0.001 0-0.001-0.001 0 0-0.001-0.001-0.002-0.001-0.012-0.005-0.023-0.001-0.035 0-0.007 0.001-0.014-0.003-0.02 0 0 0-0.001 0-0.001 0-0.002 0.001-0.003 0.001-0.004 0.002-0.53 0.212-0.906 0.656-1.057 1.192-0.151-0.536-0.528-0.982-1.059-1.193-0.001 0-0.001-0.001-0.001-0.001 0 0-0.001-0.001-0.002-0.001-0.012-0.005-0.023-0.001-0.035 0-0.007 0.001-0.014-0.003-0.021 0 0 0-0.001 0-0.001 0.001-0.001 0-0.002 0.001-0.003 0.002-0.633 0.253-1.067 0.83-1.133 1.508 0 0.001 0.001 0.002 0.001 0.004 0 0.001-0.002 0.002-0.002 0.004v4.475c0 0.042 0.034 0.075 0.076 0.075h0.969c-0.257 0.16-0.515 0.317-0.775 0.471h-1.516v-7.039h9.18v1.254c-0.408 0.385-0.824 0.762-1.247 1.131v-0.368C78.562 82.387 78.561 82.386 78.561 82.385zM71.227 87.939c-0.2 0.112-0.397 0.23-0.599 0.339v-0.339H71.227zM79.809 70.482v9.361h-9.18v-9.361H79.809zM70.628 69.954v-1.31h9.18v1.31H70.628zM80.337 80.372h0.048l-0.048 0.401V80.372zM80.98 80.372h0.108c-0.033 0.033-0.064 0.068-0.096 0.101L80.98 80.372zM84.478 70.512c-0.035-0.016-0.073 0-0.093 0.032-1.858 0.83-3.101 2.673-3.169 4.709 0 0.006 0.005 0.01 0.006 0.016-0.001 0.006-0.006 0.009-0.006 0.015v4.559h-0.879v-9.361h8.016c-0.427 0.797-0.88 1.578-1.354 2.344C86.434 71.811 85.554 70.99 84.478 70.512zM89.086 69.053v-0.409h0.198C89.219 68.781 89.153 68.917 89.086 69.053zM88.558 69.954h-8.222v-1.31h8.222V69.954zM79.809 68.116h-9.18v-8.464h9.18V68.116zM70.1 68.644v1.31h-8.221v-1.31H70.1zM70.1 70.482v9.361h-0.879v-4.559c0-0.006-0.005-0.01-0.006-0.015 0.001-0.006 0.006-0.01 0.006-0.016-0.068-2.036-1.311-3.879-3.17-4.709-0.02-0.032-0.059-0.048-0.093-0.032-1.873 0.832-3.129 2.693-3.201 4.741 0 0.006 0.005 0.01 0.006 0.016-0.001 0.006-0.006 0.009-0.006 0.015v4.559h-0.879v-9.361H70.1zM62.903 75.271c0.001-0.005 0.006-0.008 0.006-0.013 0.069-1.974 1.271-3.766 3.066-4.584 1.815 0.803 3.03 2.6 3.095 4.584 0 0.005 0.005 0.008 0.006 0.013-0.001 0.005-0.005 0.008-0.005 0.013v4.559h-6.162v-4.559C62.909 75.279 62.904 75.276 62.903 75.271zM70.1 80.372v7.039h-8.221v-7.039H70.1zM70.1 87.939v0.61c-1.043 0.546-2.105 1.061-3.196 1.522-0.279-0.194-0.571-0.367-0.884-0.506-0.001 0-0.002 0-0.003 0-0.01-0.004-0.021-0.001-0.032-0.001-0.008 0.001-0.016-0.002-0.024 0.001-0.001 0-0.002 0-0.003 0-0.821 0.365-1.524 0.935-2.067 1.638-0.664 0.224-1.335 0.433-2.012 0.626v-3.89H70.1zM65.99 89.72c0.263 0.119 0.516 0.256 0.754 0.415-0.843 0.353-1.702 0.672-2.571 0.973C64.671 90.524 65.282 90.04 65.99 89.72zM56.316 93.028c-3.728-2.784-8.905-2.784-12.633 0-0.195-0.028-0.389-0.058-0.584-0.089 0.308-0.726 0.61-1.461 0.898-2.201h12.004c0.282 0.728 0.584 1.461 0.898 2.201C56.706 92.969 56.511 92.999 56.316 93.028zM42.566 86.149v4.06h-0.769v-4.06H42.566zM42.717 86.149h0.769v4.06h-0.769V86.149zM44.405 84.44v1.181h-1.689V84.44H44.405zM47.736 78.049c0.314-1.519 0.597-3.123 0.845-4.766h2.837c0.25 1.65 0.533 3.255 0.846 4.766 0.408 1.971 0.898 3.939 1.449 5.863h-7.426C46.838 81.988 47.328 80.02 47.736 78.049zM47.165 69.014v1.838h-0.769v-1.838H47.165zM47.316 69.014h0.769v1.838h-0.769V69.014zM52.835 70.852v-1.838h0.769v1.838H52.835zM52.684 70.852h-0.769v-1.838h0.769V70.852zM51.872 72.755c-0.064-0.433-0.126-0.867-0.187-1.3l-0.011-0.075h1.01v1.375H51.872zM48.86 71.38h1.065v1.375h-1.263c0.06-0.409 0.119-0.817 0.177-1.227L48.86 71.38zM49.925 69.014v1.838h-0.769v-1.838H49.925zM50.844 69.014v1.838h-0.769v-1.838H50.844zM50.076 71.38h1.065l0.021 0.148c0.058 0.409 0.117 0.818 0.177 1.227h-1.263V71.38zM51.764 70.852h-0.769v-1.838h0.769V70.852zM50 58.533c0.2 3.313 0.441 6.657 0.8 9.952h-1.6C49.559 65.19 49.8 61.846 50 58.533zM49.005 69.014v1.838h-0.769v-1.838H49.005zM48.326 71.38l-0.01 0.074c-0.061 0.434-0.124 0.868-0.187 1.301h-0.812V71.38H48.326zM57.435 90.209v-4.06h0.769v4.06H57.435zM57.284 90.209h-0.769v-4.06h0.769V90.209zM43.637 90.209v-4.06h0.769v4.06H43.637zM44.556 86.149h0.769v4.06h-0.769V86.149zM45.476 86.149h0.769v4.06h-0.769V86.149zM46.396 86.149h0.769v4.06h-0.769V86.149zM48.085 84.44v1.181h-1.689V84.44H48.085zM51.915 85.621V84.44h1.689v1.181H51.915zM51.764 85.621h-1.689V84.44h1.689V85.621zM49.925 85.621h-1.689V84.44h1.689V85.621zM47.316 86.149h0.769v4.06h-0.769V86.149zM48.236 86.149h0.769v4.06h-0.769V86.149zM49.156 86.149h0.769v4.06h-0.769V86.149zM50.076 86.149h0.769v4.06h-0.769V86.149zM50.995 86.149h0.769v4.06h-0.769V86.149zM51.915 86.149h0.769v4.06h-0.769V86.149zM52.835 86.149h0.769v4.06h-0.769V86.149zM53.755 86.149h0.769v4.06h-0.769V86.149zM54.675 86.149h0.769v4.06h-0.769V86.149zM55.595 86.149h0.769v4.06h-0.769V86.149zM55.595 85.621V84.44h1.689v1.181H55.595zM55.444 85.621h-1.689V84.44h1.689V85.621zM46.245 84.44v1.181h-1.689V84.44H46.245zM56.571 90.737h3.647c0.218 0.465 0.44 0.923 0.667 1.375-1.132 0.293-2.286 0.529-3.451 0.731C57.135 92.145 56.847 91.442 56.571 90.737zM59.274 90.209v-1.597c0.228 0.54 0.461 1.072 0.701 1.597H59.274zM59.123 90.209h-0.769v-3.89c0.247 0.654 0.504 1.299 0.769 1.936V90.209zM54.26 83.912c-0.246-0.852-0.477-1.715-0.696-2.582h3.119c0.26 0.876 0.529 1.74 0.813 2.582H54.26zM53.523 81.178c-0.215-0.861-0.409-1.727-0.596-2.594h2.993c0.226 0.878 0.467 1.742 0.717 2.594H53.523zM52.893 78.434c-0.035-0.164-0.078-0.327-0.112-0.491-0.141-0.681-0.274-1.388-0.403-2.103h2.88c0.01 0.043 0.018 0.09 0.028 0.133 0.186 0.83 0.386 1.649 0.594 2.461H52.893zM52.35 75.689c-0.141-0.786-0.272-1.59-0.396-2.405h2.776c0.158 0.818 0.324 1.621 0.497 2.405H52.35zM52.835 72.755V71.38h1.544c0.08 0.463 0.167 0.919 0.253 1.375H52.835zM54.524 70.758l-0.064 0.094h-0.704v-1.838h0.769V70.758zM51.33 68.485c-0.087-0.798-0.162-1.602-0.236-2.405h2.495c0.101 0.798 0.209 1.6 0.327 2.405H51.33zM51.079 65.929c-0.079-0.864-0.152-1.727-0.219-2.594h2.404c0.092 0.852 0.195 1.72 0.306 2.594H51.079zM50.849 63.184c-0.066-0.865-0.132-1.729-0.19-2.594h2.331c0.079 0.847 0.162 1.709 0.258 2.594H50.849zM50.65 60.44c-0.057-0.866-0.113-1.732-0.164-2.594h2.266c0.067 0.831 0.143 1.703 0.224 2.594H50.65zM50.476 57.695c-0.051-0.87-0.099-1.731-0.146-2.594h2.216c0.058 0.817 0.122 1.683 0.194 2.594H50.476zM50.322 54.95c-0.019-0.335-0.038-0.674-0.057-1.007l-0.001-0.012v-1.574h2.111c0.052 0.815 0.092 1.634 0.149 2.447 0.003 0.047 0.007 0.099 0.011 0.147H50.322zM50.264 52.205v-2.594h1.944c0.05 0.866 0.103 1.73 0.158 2.594H50.264zM47.942 47.055h1.794v2.405h-1.935C47.846 48.658 47.9 47.858 47.942 47.055zM50.264 47.055h1.794c0.042 0.803 0.095 1.603 0.141 2.405h-1.935V47.055zM50.264 46.527v-2.405h1.658c0.037 0.802 0.07 1.603 0.111 2.405H50.264zM50.264 43.971v-2.594h1.532c0.037 0.864 0.08 1.729 0.12 2.594H50.264zM50.264 41.226v-2.594h1.419c0.033 0.865 0.07 1.728 0.106 2.594H50.264zM50.264 38.481v-2.594h1.319c0.031 0.864 0.061 1.727 0.094 2.594H50.264zM50.264 35.736v-2.594h1.219c0.029 0.862 0.064 1.73 0.094 2.594H50.264zM49.18 23.531v1.564h-0.604v-1.564H49.18zM50.669 21.611v1.392h-1.338v-1.392H50.669zM48.692 27.653h1.044v2.594H48.61C48.638 29.38 48.665 28.515 48.692 27.653zM50.264 27.653h1.044c0.027 0.863 0.054 1.727 0.082 2.594h-1.125V27.653zM51.303 27.502h-1.039v-1.878h0.98C51.263 26.246 51.284 26.878 51.303 27.502zM50.82 25.096v-1.564h0.604v1.564H50.82zM50.669 25.096h-0.594v-1.564h0.594V25.096zM49.925 23.531v1.564h-0.594v-1.564H49.925zM49.736 25.624v1.878h-1.039c0.019-0.624 0.04-1.256 0.059-1.878H49.736zM48.606 30.398h1.13v2.594h-1.214C48.551 32.122 48.578 31.263 48.606 30.398zM50.264 30.398h1.13c0.028 0.866 0.054 1.724 0.083 2.594h-1.213V30.398zM50.82 23.003v-1.392h0.818v1.392H50.82zM48.362 21.611h0.818v1.392h-0.818V21.611zM48.517 33.142h1.219v2.594h-1.313C48.453 34.872 48.488 34.004 48.517 33.142zM48.417 35.887h1.319v2.594h-1.413C48.356 37.614 48.386 36.752 48.417 35.887zM48.317 38.632h1.419v2.594h-1.525C48.248 40.36 48.284 39.497 48.317 38.632zM48.204 41.377h1.532v2.594h-1.652C48.125 43.106 48.168 42.241 48.204 41.377zM48.077 44.122h1.659v2.405h-1.77C48.007 45.725 48.04 44.924 48.077 44.122zM47.792 49.611h1.945v2.594h-2.103C47.688 51.341 47.742 50.477 47.792 49.611zM47.475 54.803c0.057-0.814 0.097-1.632 0.149-2.447h2.112v1.575c-0.019 0.337-0.039 0.68-0.057 1.019h-2.214C47.468 54.902 47.472 54.85 47.475 54.803zM47.454 55.101h2.217c-0.048 0.862-0.095 1.724-0.146 2.594H47.26C47.332 56.784 47.396 55.918 47.454 55.101zM47.248 57.846h2.266c-0.051 0.862-0.107 1.728-0.164 2.594h-2.327C47.106 59.549 47.182 58.677 47.248 57.846zM47.01 60.591h2.331c-0.057 0.865-0.123 1.728-0.19 2.594h-2.399C46.847 62.3 46.931 61.438 47.01 60.591zM46.735 63.335h2.404c-0.067 0.866-0.14 1.73-0.219 2.594H46.43C46.54 65.055 46.643 64.188 46.735 63.335zM46.411 66.08h2.495c-0.074 0.803-0.149 1.607-0.236 2.405h-2.587C46.202 67.68 46.309 66.878 46.411 66.08zM46.245 69.014v1.838H45.54l-0.064-0.094v-1.744H46.245zM45.621 71.38h1.544v1.375h-1.797C45.454 72.299 45.54 71.843 45.621 71.38zM45.271 73.283h2.776c-0.124 0.814-0.255 1.617-0.396 2.405h-2.877C44.947 74.904 45.113 74.101 45.271 73.283zM44.713 75.973c0.01-0.043 0.018-0.089 0.028-0.133h2.88c-0.129 0.713-0.261 1.419-0.402 2.103-0.034 0.164-0.077 0.327-0.112 0.491h-2.988C44.327 77.622 44.527 76.803 44.713 75.973zM44.079 78.585h2.994c-0.187 0.867-0.38 1.733-0.596 2.594h-3.115C43.612 80.327 43.853 79.463 44.079 78.585zM43.317 81.329h3.119c-0.219 0.868-0.45 1.73-0.696 2.582h-3.236C42.788 83.069 43.058 82.206 43.317 81.329zM41.646 90.209h-0.769v-1.953c0.265-0.637 0.522-1.282 0.769-1.936V90.209zM40.726 90.209h-0.701c0.239-0.525 0.473-1.057 0.701-1.596V90.209zM39.782 90.737h3.647c-0.274 0.699-0.562 1.4-0.863 2.106-1.165-0.202-2.319-0.438-3.451-0.731C39.342 91.66 39.565 91.202 39.782 90.737zM36.394 89.193V91.3c-1.555-0.514-3.071-1.113-4.544-1.792v-0.315H36.394zM32.305 83.602c0.03-0.956 0.803-1.729 1.76-1.759 0.02-0.001 0.04-0.001 0.059-0.001 0.464 0 0.903 0.174 1.243 0.492 0.354 0.333 0.558 0.783 0.573 1.268v5.44h-3.634V83.602zM36.545 89.812h2.032v2.147c-0.684-0.186-1.362-0.389-2.032-0.608V89.812zM38.578 89.661h-2.032v-0.468h0.365c0.042 0 0.075-0.034 0.075-0.076s-0.034-0.076-0.075-0.076h-0.82V83.6c0 0 0-0.001 0-0.001l0-0.001c-0.017-0.526-0.237-1.014-0.62-1.373-0.384-0.36-0.882-0.551-1.41-0.533-1.036 0.033-1.873 0.87-1.906 1.906l0 0.001c0 0 0 0.001 0 0.001v5.442h-0.82c-0.042 0-0.075 0.034-0.075 0.076s0.034 0.076 0.075 0.076h0.365v0.247c-0.687-0.32-1.365-0.656-2.032-1.01v-8.865h8.91V89.661zM18.488 79.036H17.9V73.57h4.778l0.157 0.929C20.503 74.81 18.707 76.673 18.488 79.036zM14.233 74.703h2.005v2.674C15.536 76.513 14.869 75.62 14.233 74.703zM38.578 73.23h-8.925c-0.033-0.108-0.13-0.189-0.249-0.189H17.636c-0.119 0-0.216 0.08-0.249 0.189H13.26c-0.539-0.849-1.057-1.712-1.537-2.599h26.854V73.23zM16.314 74.552h-2.188c-0.264-0.385-0.517-0.778-0.769-1.171h4.015v5.329c-0.332-0.377-0.664-0.753-0.983-1.141v-2.941C16.39 74.586 16.356 74.552 16.314 74.552zM22.986 74.485l-0.155-0.915h1.376l-0.155 0.916c-0.249-0.026-0.501-0.04-0.755-0.029C23.193 74.461 23.09 74.474 22.986 74.485zM24.361 73.57h4.778v5.467h-0.588c-0.117-1.252-0.68-2.401-1.614-3.257-0.77-0.705-1.723-1.141-2.734-1.278L24.361 73.57zM29.139 79.565v8.585c-0.191-0.105-0.376-0.218-0.565-0.325v-8.26H29.139zM29.667 79.036v-5.655h8.91v5.655H29.667zM38.712 70.103H11.452c-0.238-0.454-0.475-0.908-0.697-1.371h28.086 0.923L38.712 70.103zM18.142 79.565h0.323v0.339C18.357 79.79 18.248 79.679 18.142 79.565zM18.993 80.457v-0.893h0.157c0.146 0 0.264-0.118 0.264-0.264s-0.118-0.264-0.264-0.264h-0.119c0.233-2.229 2.021-3.953 4.29-4.053 1.221-0.051 2.367 0.368 3.259 1.186 0.824 0.755 1.326 1.765 1.441 2.867H27.89c-0.146 0-0.264 0.118-0.264 0.264s0.118 0.264 0.264 0.264h0.157v7.956C24.722 85.568 21.679 83.191 18.993 80.457zM44.466 93.127c3.342-2.21 7.728-2.209 11.069 0-1.814 0.232-3.658 0.364-5.534 0.364C48.124 93.492 46.28 93.359 44.466 93.127zM89.524 68.116h-0.437v-8.464H89.6c0.146 0 0.264-0.118 0.264-0.264s-0.118-0.264-0.264-0.264h-0.513v-9.488-3.749c0-0.011-0.005-0.021-0.007-0.032-0.001-0.011 0.001-0.022-0.002-0.033l-1.337-5.282c-0.003-0.012-0.011-0.021-0.015-0.032-0.007-0.017-0.013-0.034-0.024-0.049-0.009-0.014-0.021-0.025-0.033-0.037-0.012-0.012-0.024-0.024-0.038-0.034-0.014-0.01-0.03-0.015-0.046-0.022-0.012-0.005-0.022-0.013-0.035-0.017-0.005-0.001-0.009 0-0.014-0.001-0.016-0.003-0.033-0.002-0.049-0.002-0.018 0-0.036-0.001-0.054 0.002-0.004 0.001-0.009-0.001-0.013 0.001-0.013 0.003-0.022 0.011-0.034 0.016-0.016 0.007-0.032 0.013-0.047 0.022-0.015 0.01-0.027 0.022-0.039 0.035-0.012 0.012-0.023 0.022-0.032 0.036-0.011 0.016-0.017 0.033-0.024 0.05-0.004 0.011-0.012 0.02-0.015 0.032l-1.337 5.282c-0.003 0.011 0 0.022-0.002 0.033-0.001 0.011-0.007 0.021-0.007 0.032v3.485h-5.813c-0.146 0-0.264 0.118-0.264 0.264v9.488h-9.18v-9.488c0-0.146-0.118-0.264-0.264-0.264h-5.813v-3.485c0-0.011-0.005-0.021-0.007-0.032-0.001-0.011 0.001-0.022-0.002-0.033l-1.336-5.282c-0.003-0.012-0.011-0.021-0.015-0.032-0.007-0.017-0.013-0.034-0.024-0.049-0.009-0.014-0.021-0.025-0.033-0.037-0.012-0.012-0.024-0.024-0.039-0.034-0.014-0.009-0.03-0.015-0.045-0.022-0.012-0.005-0.022-0.014-0.035-0.017-0.005-0.001-0.009 0-0.014-0.001-0.016-0.003-0.032-0.002-0.049-0.002-0.018 0-0.036-0.001-0.053 0.002-0.005 0.001-0.009-0.001-0.014 0.001-0.013 0.003-0.023 0.012-0.036 0.017-0.015 0.006-0.03 0.012-0.044 0.021-0.016 0.01-0.028 0.023-0.041 0.036-0.011 0.011-0.022 0.021-0.031 0.034-0.011 0.016-0.017 0.033-0.025 0.051-0.004 0.011-0.012 0.02-0.015 0.031l-1.337 5.282c-0.003 0.011 0 0.022-0.002 0.033-0.001 0.011-0.007 0.021-0.007 0.032v3.749 9.488h-0.514c-0.146 0-0.264 0.118-0.264 0.264s0.118 0.264 0.264 0.264h0.514v8.464h-0.514c-0.146 0-0.264 0.118-0.264 0.264 0 0.146 0.118 0.264 0.264 0.264h0.514v1.31h-0.514c-0.146 0-0.264 0.118-0.264 0.264s0.118 0.264 0.264 0.264h0.514v9.361h-0.514c-0.146 0-0.264 0.118-0.264 0.264 0 0.146 0.118 0.264 0.264 0.264h0.514v7.039h-0.514c-0.146 0-0.264 0.118-0.264 0.264s0.118 0.264 0.264 0.264h0.514v3.927c-0.904-1.808-1.742-3.723-2.496-5.717h1.016c0.146 0 0.264-0.118 0.264-0.264v-1.709c0-0.146-0.118-0.264-0.264-0.264h-1.82c-0.862-2.542-1.619-5.248-2.249-8.055-0.336-1.498-0.646-3.073-0.923-4.682l0.808-1.187c0.003-0.004 0-0.009 0.003-0.013 0.025-0.04 0.043-0.085 0.043-0.136v-1.09c0-0.146-0.118-0.264-0.264-0.264H54.45c-0.736-4.999-1.134-9.95-1.399-13.719-0.681-9.724-0.986-19.6-1.28-29.16 0.009-0.003 0.018-0.006 0.027-0.011 0.01-0.005 0.017-0.012 0.027-0.018 0.025-0.016 0.047-0.035 0.065-0.059 0.004-0.006 0.011-0.008 0.015-0.014l0.852-1.296c0.002-0.004 0-0.008 0.002-0.012 0.024-0.04 0.041-0.083 0.041-0.133v-0.796c0-0.146-0.118-0.264-0.264-0.264h-0.37v-1.656c0-0.001 0-0.001 0-0.002 0-0.001 0-0.001 0-0.001-0.02-1.186-0.795-2.226-1.902-2.611v-7.326c0-0.146-0.118-0.264-0.264-0.264s-0.264 0.118-0.264 0.264v7.326c-1.107 0.385-1.882 1.425-1.902 2.61 0 0 0 0.001 0 0.002 0 0.001 0 0.001 0 0.002v1.656h-0.37c-0.146 0-0.264 0.118-0.264 0.264v0.796c0 0.05 0.017 0.093 0.041 0.133 0.002 0.004 0 0.008 0.002 0.012l0.852 1.296c0.004 0.006 0.011 0.008 0.015 0.014 0.018 0.024 0.04 0.043 0.065 0.059 0.009 0.006 0.017 0.013 0.027 0.018 0.009 0.004 0.017 0.007 0.027 0.011-0.293 9.555-0.598 19.427-1.28 29.16-0.264 3.772-0.663 8.724-1.398 13.719h-1.018c-0.146 0-0.264 0.118-0.264 0.264v1.09c0 0.051 0.018 0.096 0.043 0.136 0.002 0.004 0 0.009 0.003 0.013l0.807 1.187c-0.277 1.606-0.586 3.182-0.923 4.682-0.631 2.809-1.388 5.516-2.249 8.055h-1.82c-0.146 0-0.264 0.118-0.264 0.264v1.709c0 0.146 0.118 0.264 0.264 0.264h1.016c-0.626 1.656-1.308 3.264-2.04 4.797V79.565h0.696c0.146 0 0.264-0.118 0.264-0.264s-0.118-0.264-0.264-0.264h-0.696v-8.58l1.404-1.827c0.003-0.004 0.001-0.009 0.003-0.013 0.03-0.043 0.051-0.092 0.051-0.148 0-0.009-0.004-0.016-0.005-0.024-0.001-0.008-0.003-0.014-0.005-0.022-0.012-0.062-0.042-0.116-0.089-0.154-0.003-0.002-0.002-0.006-0.005-0.008-0.004-0.003-0.009-0.001-0.013-0.003-0.043-0.03-0.092-0.052-0.148-0.052h-1.195v-3.912h0.509c0.146 0 0.264-0.118 0.264-0.264 0-0.146-0.118-0.264-0.264-0.264h-0.773H23.52 8.754C7.305 59.436 6.508 54.81 6.508 50 6.508 26.019 26.019 6.508 50 6.508c23.981 0 43.491 19.51 43.491 43.491C93.492 56.463 92.064 62.596 89.524 68.116z"></path></g></svg></g></g></svg></g><defs><mask></mask></defs><mask><g id="SvgjsG1694"><svg viewBox="0 0 395.52 247.2" height="247.2" width="395.52"><g><svg></svg></g><g><svg viewBox="0 0 395.52 247.2" height="247.2" width="395.52"><mask id="SvgjsMask1693"><g transform="matrix(1,0,0,1,39.55199999999999,77.40223164763458)"><svg viewBox="0 0 316.416 92.39553670473082" height="92.39553670473082" width="316.416"><g><svg viewBox="0 0 316.416 92.39553670473082" height="92.39553670473082" width="316.416"><g><svg viewBox="0 0 316.416 92.39553670473082" height="92.39553670473082" width="316.416"><g><svg viewBox="0 0 316.416 92.39553670473082" height="92.39553670473082" width="316.416"><g id="SvgjsG1692"><svg viewBox="0 0 316.416 92.39553670473082" height="92.39553670473082" width="316.416" id="SvgjsSvg1691"><g><svg viewBox="0 0 316.416 92.39553670473082" height="92.39553670473082" width="316.416"><g transform="matrix(1,0,0,1,0,0)"><svg width="316.416" viewBox="3.8000001907348633 -45.5 184.87998962402344 54.70000076293945" height="92.39553670473082" data-palette-color="url(#55a87d0a-89b6-47cd-9ea7-f32e32ab1089)"></svg></g></svg></g></svg></g></svg></g><g></g></svg></g></svg></g></svg></g></mask><g transform="matrix(1,0,0,1,39.55199999999999,77.40223164763458)"><svg viewBox="0 0 316.416 92.39553670473082" height="92.39553670473082" width="316.416"><g><svg viewBox="0 0 316.416 92.39553670473082" height="92.39553670473082" width="316.416"><g><svg viewBox="0 0 316.416 92.39553670473082" height="92.39553670473082" width="316.416"><g><svg viewBox="0 0 316.416 92.39553670473082" height="92.39553670473082" width="316.416"><g id="SvgjsG1690"><svg viewBox="0 0 316.416 92.39553670473082" height="92.39553670473082" width="316.416" id="SvgjsSvg1689"><g><svg viewBox="0 0 316.416 92.39553670473082" height="92.39553670473082" width="316.416"><g transform="matrix(1,0,0,1,0,0)"><svg width="316.416" viewBox="3.8000001907348633 -45.5 184.87998962402344 54.70000076293945" height="92.39553670473082" data-palette-color="url(#55a87d0a-89b6-47cd-9ea7-f32e32ab1089)"></svg></g></svg></g></svg></g></svg></g><g></g></svg></g></svg></g></svg></g><g mask="url(#11940cd5-49d4-4d75-98fc-439da6f61be1)"><g transform="matrix(2.7244444444444444, 0, 0, 2.7244444444444444, 75.16, 1)"><svg xmlns="http://www.w3.org/2000/svg" xmlns:xlink="http://www.w3.org/1999/xlink" version="1.1" x="0" y="0" viewBox="5 5 90 90" enable-background="new 0 0 100 100" xml:space="preserve" height="90" width="90" class="icon-none" data-fill-palette-color="accent" id="SvgjsSvg1687"></svg></g></g></svg></g><defs><mask></mask></defs></svg></g></mask></svg></g></mask><linearGradient x1="0.054" x2="0.941" y1="0.5" y2="0.5" id="a0f81386-05f0-44e1-94d7-4b966292514f"><stop stop-color="#864d25" offset="0"></stop><stop stop-color="#f1c4b3" offset="0.498"></stop><stop stop-color="#864d25" offset="1"></stop></linearGradient><rect width="395.5199890136719" height="247.1999969482422" fill="url(#a0f81386-05f0-44e1-94d7-4b966292514f)" mask="url(#840936ee-1900-4dc3-b6e8-732eaa31a0ce)" data-fill-palette-color="accent"></rect></svg><rect width="395.52" height="247.2" fill="none" stroke="none" visibility="hidden"></rect></g></svg></g></svg>