<svg xmlns="http://www.w3.org/2000/svg" version="1.1" xmlns:xlink="http://www.w3.org/1999/xlink" xmlns:svgjs="http://svgjs.dev/svgjs" width="1000" height="457" viewBox="0 0 1000 457"><g transform="matrix(1,0,0,1,-0.6060606060606233,-0.1285914342995511)"><svg viewBox="0 0 396 181" data-background-color="#ffffff" preserveAspectRatio="xMidYMid meet" height="457" width="1000" xmlns="http://www.w3.org/2000/svg" xmlns:xlink="http://www.w3.org/1999/xlink"><g id="tight-bounds" transform="matrix(1,0,0,1,0.2400000000000091,0.050930086670064156)"><svg viewBox="0 0 395.52 180.89792287351872" height="180.89792287351872" width="395.52"><g><svg viewBox="0 0 395.52 180.89792287351872" height="180.89792287351872" width="395.52"><g transform="matrix(1,0,0,1,0,91.85779765469026)"><svg viewBox="0 0 395.52 89.04012521882845" height="89.04012521882845" width="395.52"><g id="textblocktransform"><svg viewBox="0 0 395.52 89.04012521882845" height="89.04012521882845" width="395.52" id="textblock"><g><svg viewBox="0 0 395.52 89.04012521882845" height="89.04012521882845" width="395.52"><g transform="matrix(1,0,0,1,0,0)"><svg width="395.52" viewBox="-2.1474695205688477 -13.322090148925781 204.9117889404297 46.13010025024414" height="89.04012521882845" data-palette-color="#2a160c"><path d="M6.58 13.865v0c-3.458 1.57-5.868 2.195-7.231 1.874v0c-0.733-0.172-1.188-0.656-1.364-1.451-0.183-0.796-0.176-1.61 0.019-2.44v0c0.376-1.596 1.61-3.833 3.705-6.71 2.101-2.875 3.765-4.169 4.991-3.88v0c0.636 0.15 0.884 1.526 0.744 4.13-0.138 2.597-0.107 4.516 0.095 5.755v0c2.822-1.863 7.034-5.084 12.638-9.663v0c7.052-5.813 11.539-8.846 13.461-9.1v0c0.65-0.087 1.29-0.056 1.92 0.092 0.636 0.15 1.13 0.406 1.483 0.77 0.353 0.364 0.483 0.744 0.39 1.14v0c-0.133 0.565-0.695 0.785-1.686 0.661v0c-1.31 0.356-3.464 1.462-6.462 3.319v0c-2.983 1.791-5.449 3.543-7.4 5.255v0c-4.723 4.121-9.33 7.301-13.821 9.539v0c1.212 3.203 3.814 5.273 7.805 6.212v0c0.435 0.102 1.092 0.219 1.972 0.351v0c9.444 1.311 16.937-1.152 22.479-7.389v0c2.231-2.496 3.674-5.139 4.331-7.929 0.658-2.797 0.236-5.547-1.265-8.249v0c-1.198-2.213-2.704-3.759-4.518-4.638-1.806-0.884-3.708-1.56-5.707-2.031v0c-5.12-1.204-10.119-1.134-14.997 0.212v0c-5.142 1.42-8.076 3.675-8.803 6.764v0c-0.197 0.837-0.134 1.574 0.189 2.212 0.323 0.637 0.561 1.008 0.714 1.113v0l-0.302-0.071c-0.823-0.372-1.484-0.983-1.983-1.832v0c-0.529-1.042-0.68-2.043-0.454-3.004v0c0.783-3.329 3.542-5.697 8.276-7.104 4.736-1.413 9.914-1.459 15.534-0.137v0c2.589 0.609 5.18 1.533 7.772 2.773 2.585 1.238 4.725 3.248 6.42 6.031v0c1.938 3.264 2.511 6.576 1.72 9.938v0c-0.586 2.492-1.926 4.896-4.018 7.211v0c-3.604 3.994-8.167 6.465-13.691 7.412v0c-4.422 0.747-8.959 0.574-13.612-0.521-4.66-1.096-7.774-3.301-9.344-6.615zM-0.157 12.065v0c-0.243 1.032-0.253 1.978-0.03 2.838v0c1.576-0.294 3.614-1.201 6.115-2.722v0c-0.591-1.824-0.903-3.222-0.934-4.195-0.039-0.968 0.069-2.213 0.324-3.735v0c-3.071 2.75-4.896 5.354-5.475 7.814zM10.262-0.216v0c0.032 0.008 0.069-0.001 0.109-0.026v0c-0.015 0.065-0.029 0.096-0.043 0.093-0.019-0.005-0.042-0.027-0.066-0.067zM56.339 25.231v0c-1.998-0.249-2.851-1.544-2.56-3.886v0c0.165-1.323 0.813-2.73 1.946-4.222 1.134-1.498 2.514-3.248 4.14-5.249v0c-4.61 1.63-8.942 4.346-12.996 8.147v0c-2.332 2.706-3.667 4.038-4.004 3.997v0c-0.986-0.123-1.443-0.472-1.371-1.048v0c0.039-0.311 0.311-0.828 0.818-1.551v0c4.018-5.459 7.043-9.439 9.074-11.941v0.001c4.834-5.969 8.118-9.121 9.853-9.456v0c0.07-0.025 0.138-0.033 0.205-0.025v0c0.443 0.055 0.704 0.447 0.781 1.175v0c-0.188 0.702-2.272 3.06-6.252 7.073v0c-4.12 4.062-6.501 6.759-7.143 8.089v0c1.364-0.757 3.742-2.027 7.135-3.808v0c3.645-1.918 6.01-2.809 7.094-2.674 1.085 0.135 1.575 0.626 1.469 1.473v0c-0.016 0.132-0.038 0.224-0.064 0.274-0.02 0.051-1.397 1.506-4.13 4.363-2.728 2.865-4.185 5.042-4.37 6.53v0c-0.097 0.781 0.142 1.207 0.717 1.279v0c1.834 0.161 4.854-1.7 9.059-5.584v0c0.342-0.266 0.589-0.39 0.742-0.371 0.152 0.019 0.216 0.128 0.191 0.326v0c-0.085 0.681-1.99 2.305-5.715 4.871v0c-2.332 1.571-3.872 2.31-4.619 2.217zM136.233 3.611v0c0.027 1.74-0.814 3.666-2.522 5.78-1.715 2.106-4.329 3.836-7.842 5.19-3.513 1.354-6.936 2.056-10.269 2.106-3.326 0.051-5.969-0.339-7.928-1.169v0c-4.21 6.385-6.955 10.237-8.235 11.557v0c-3.63 3.742-8.008 5.653-13.134 5.731v0c-2.9 0.044-5.086-0.596-6.56-1.92-1.474-1.324-2.227-3.063-2.26-5.217v0c-0.045-2.973 1.109-5.791 3.461-8.453v0c2.582-2.946 5.873-4.45 9.873-4.511v0c1.64-0.025 3.029 0.331 4.166 1.066 1.138 0.729 1.719 1.864 1.743 3.404v0c0.016 1.027-0.546 2.265-1.684 3.716-1.138 1.451-1.844 2.178-2.117 2.183v0c-0.073 0.001-0.111-0.065-0.113-0.199-0.002-0.14 0.049-0.277 0.154-0.412v0c1.069-1.623 1.593-3.111 1.572-4.464-0.021-1.347-0.456-2.38-1.308-3.101-0.844-0.721-1.883-1.071-3.116-1.052v0c-2.866 0.044-5.383 1.389-7.549 4.035-2.16 2.647-3.22 5.3-3.179 7.959v0c0.026 1.706 0.584 3.081 1.673 4.125 1.096 1.043 2.771 1.548 5.023 1.514v0c4.2-0.064 7.781-1.535 10.744-4.414v0c1.715-1.666 3.438-4.083 5.17-7.25v0l4.327-8.117c2.133-3.553 4.599-8.818 7.4-15.794v0c-0.307 0.005-0.613 0.009-0.92 0.014v0c-4.613 0.07-9.235 0.644-13.865 1.721-4.631 1.084-8.125 2.581-10.483 4.49v0c-1.015 0.802-1.516 1.58-1.504 2.334 0.011 0.753 0.421 1.354 1.227 1.801 0.814 0.448 1.767 0.663 2.86 0.647 1.093-0.017 2.446-0.251 4.06-0.702 1.613-0.451 2.824-1.043 3.634-1.776v0c0.342-0.279 0.58-0.419 0.713-0.421v0c0.273-0.004 0.325 0.132 0.156 0.408v0c-1.205 1.459-3.048 2.563-5.53 3.315v0c-1.533 0.47-3.049 0.717-4.549 0.739-1.5 0.023-2.735-0.292-3.705-0.944-0.963-0.652-1.454-1.551-1.471-2.698-0.017-1.14 0.578-2.302 1.787-3.487v0c2.285-2.288 6.409-4.025 12.372-5.209v0c4.221-0.811 9.082-1.259 14.581-1.343v0c0.447-0.007 0.91-0.014 1.39-0.021v0c0.737-0.665 1.415-1.002 2.035-1.011 0.613-0.009 0.924 0.226 0.931 0.706v0c0.002 0.1-0.013 0.22-0.045 0.361v0c5.298 0.293 9.598 1.114 12.899 2.463v0c3.918 1.58 5.897 3.687 5.937 6.32zM133.816 3.128v0c-0.033-2.146-1.803-3.876-5.31-5.189v0c-3.058-1.154-6.875-1.812-11.451-1.976v0l-1.562 5.144c-1.251 3.233-3.676 7.744-7.275 13.533v0c0.343 0.168 0.925 0.349 1.749 0.543v0c1.37 0.219 2.432 0.323 3.185 0.312v0c2.593-0.04 5.571-0.625 8.934-1.757 3.37-1.125 6.172-2.738 8.407-4.838 2.242-2.101 3.349-4.025 3.323-5.772zM145.824 9.583v0l0.695-0.239c0.37-0.047 0.743 0.061 1.119 0.322 0.382 0.261 0.584 0.477 0.606 0.65 0.021 0.165-0.825 1.932-2.536 5.299-1.712 3.367-2.491 5.66-2.338 6.877v0c0.013 0.106 0.043 0.206 0.088 0.301v0c0.27 0.759 0.693 1.102 1.269 1.029v0c1.766-0.223 4.62-3.543 8.561-9.96v0c0.082-0.151 0.189-0.235 0.321-0.252 0.139-0.018 0.224 0.099 0.256 0.351 0.033 0.258-0.078 0.608-0.331 1.05v0c-3.607 6.348-6.545 9.665-8.814 9.951v0c-0.304 0.038-0.599 0.022-0.883-0.05v0c-1.567-0.387-2.456-1.41-2.666-3.07v0c-0.073-0.575-0.076-1.16-0.009-1.753v0l-2.771 3.444c-1.775 2.018-3.112 3.084-4.011 3.197-0.9 0.113-1.792-0.066-2.679-0.539v0c-0.999-0.566-1.569-1.408-1.709-2.526v0c-0.312-2.474 1.041-5.648 4.06-9.523 3.025-3.876 5.98-5.996 8.864-6.359v0c1.118-0.141 1.911 0.155 2.38 0.889v0c0.133 0.259 0.248 0.476 0.344 0.652 0.089 0.177 0.151 0.263 0.184 0.259zM132.201 24.001v0c0.154 1.224 0.655 1.782 1.502 1.675v0c1.964-0.248 4.372-2.739 7.221-7.472v0l4.451-8.101c-0.331-0.442-0.801-0.625-1.409-0.548v0c-2.07 0.261-4.613 2.211-7.628 5.851-3.022 3.634-4.401 6.499-4.137 8.595zM162.917 22.602v0c-2.516 0.47-4.036-0.69-4.558-3.482v0c-0.263-1.409-0.182-3.021 0.246-4.837 0.42-1.815 0.963-3.374 1.628-4.679v0c-0.164 0.065-0.381 0.122-0.65 0.172v0c-0.806 0.151-1.584-0.294-2.334-1.334v0l-2.824 5.523c-1.6 2.978-2.567 4.498-2.901 4.561v0c-0.17 0.032-0.268-0.021-0.294-0.159v0c-0.062-0.334 0.132-0.872 0.583-1.615v0c2.288-3.941 3.819-7.198 4.593-9.77v0c0.227-3.067 0.927-4.71 2.1-4.929v0c0.773-0.145 1.222 0.117 1.347 0.785 0.126 0.675-0.133 1.612-0.777 2.811v0l-0.907 1.838c0.131 0.701 0.714 0.955 1.749 0.761v0c0.609-0.114 1.241-0.456 1.894-1.025v0l1.167-1.052c0.059-0.045 0.223-0.093 0.492-0.143 0.269-0.05 0.585 0.064 0.949 0.341 0.364 0.278 0.522 0.56 0.474 0.848v0l-2.661 5.034c-1.635 3.154-2.304 5.527-2.006 7.12 0.299 1.599 1.189 2.26 2.67 1.983v0c1.54-0.288 3.283-1.465 5.23-3.531v0c1.161-1.228 2.182-2.548 3.065-3.96v0c0.815-1.407 1.272-2.12 1.37-2.138v0c0.236-0.044 0.378 0.062 0.426 0.317 0.047 0.249-0.05 0.569-0.289 0.959v0l-1.272 2.12c-0.736 1.107-1.576 2.2-2.52 3.279v0c-2.276 2.48-4.273 3.881-5.99 4.202zM179.071-2.407c0.499-0.118 1.01-0.075 1.531 0.13 0.523 0.212 0.836 0.535 0.939 0.969 0.102 0.428-0.018 0.85-0.357 1.267-0.341 0.41-0.762 0.674-1.261 0.792-0.499 0.118-1 0.045-1.502-0.219-0.501-0.265-0.807-0.631-0.918-1.098v0c-0.22-0.928 0.302-1.541 1.568-1.841zM174.995 20.615v0c-1.693 0.402-2.8-0.494-3.32-2.686v0c-0.425-1.79-0.035-4.507 1.17-8.15 1.213-3.638 2.412-5.615 3.599-5.931v0c0.331-0.078 0.735-0.034 1.213 0.134 0.485 0.166 0.759 0.382 0.822 0.647v0c-0.113 0.274-0.254 0.577-0.421 0.912-0.166 0.341-0.342 0.708-0.53 1.102-0.187 0.394-0.442 0.954-0.762 1.682-0.314 0.725-0.622 1.422-0.923 2.089v0c-1.726 3.815-2.445 6.329-2.157 7.542 0.288 1.213 0.847 1.721 1.677 1.524v0c0.701-0.166 1.557-0.774 2.568-1.822v0c2.38-2.387 4.139-4.805 5.278-7.255v0c0.422-0.909 0.74-1.388 0.954-1.439 0.214-0.051 0.353 0.057 0.416 0.323 0.063 0.266-0.193 0.889-0.77 1.868-0.57 0.978-1.026 1.754-1.369 2.329-0.338 0.567-0.57 0.947-0.696 1.142-0.133 0.189-0.374 0.544-0.723 1.065-0.349 0.521-0.621 0.891-0.816 1.109-0.194 0.224-0.468 0.553-0.825 0.987-0.35 0.432-0.675 0.763-0.977 0.992-0.294 0.234-0.632 0.499-1.014 0.795v0c-0.63 0.465-1.428 0.812-2.394 1.041zM195.077 12.905l-1.282 1.48c-0.795 0.831-1.892 1.446-3.29 1.845-1.391 0.398-2.589 0.245-3.594-0.458-1.001-0.712-2.051-1.993-3.149-3.843v0c-0.421 0.758-0.747 1.171-0.977 1.237v0c-0.167 0.048-0.283-0.044-0.349-0.275-0.066-0.231-0.039-0.45 0.082-0.658v0c0.698-1.656 1.983-4.121 3.854-7.395v0l4.537-7.591c1.297-2.181 2.109-3.318 2.436-3.411v0c1.051-0.301 1.69-0.057 1.915 0.731v0c0.114 0.397 0.071 0.829-0.129 1.295-0.208 0.462-0.354 0.822-0.439 1.083-0.087 0.254-0.185 0.504-0.295 0.75v0c-0.298 1.188-0.296 3.462 0.007 6.821 0.302 3.36 0.468 5.708 0.497 7.045v0c2.715-0.811 5.015-3.387 6.901-7.726v0c0.24-0.422 0.44-0.656 0.6-0.702 0.167-0.048 0.28 0.034 0.34 0.246 0.061 0.212-0.004 0.542-0.194 0.992v0c-1.265 2.775-2.595 4.841-3.99 6.196v0c-0.839 0.774-2 1.553-3.481 2.338zM185.576 10.817v0c0.321 1.122 0.951 1.93 1.89 2.424 0.945 0.492 1.876 0.607 2.793 0.345 0.923-0.264 1.577-0.645 1.961-1.143v0c0.556-0.554 0.773-2.253 0.653-5.096-0.12-2.843-0.407-5.299-0.86-7.368v0l-0.279-1.74c-1.422 1.863-2.854 4.155-4.294 6.876-1.447 2.723-2.103 4.44-1.97 5.15v0c0.025 0.208 0.06 0.392 0.106 0.552z" opacity="1" transform="matrix(1,0,0,1,0,0)" fill="#2a160c" class="wordmark-text-0" data-fill-palette-color="primary" id="text-0"></path></svg></g></svg></g></svg></g></svg></g><g transform="matrix(1,0,0,1,75.54431999999998,0)"><svg viewBox="0 0 244.43136 86.04404535522191" height="86.04404535522191" width="244.43136"><g><svg xmlns="http://www.w3.org/2000/svg" xmlns:xlink="http://www.w3.org/1999/xlink" version="1.1" x="0" y="0" viewBox="4.961000442504883 34.146995544433594 90.0780029296875 31.709007263183594" enable-background="new 0 0 100 100" xml:space="preserve" height="86.04404535522191" width="244.43136" class="icon-icon-0" data-fill-palette-color="accent" id="icon-0"><path d="M95.037 63.759h-0.055V53.332h-2.819v9.236h-1.361v-2.334h-2.723v1.458H84.19v-6.124h-3.014v-7.195h-2.723v13.975c-0.782-1.335-1.454-2.83-2.029-4.421h0.65v-1.146h-1.042c-0.363-1.118-0.683-2.273-0.965-3.44h0.414v-1.146h-0.678c-1.235-5.651-1.626-11.44-1.745-14.855h0.915v-0.803h-0.303v-0.233h-0.643c-0.029-1.245-0.021-1.99-0.021-2.028l-0.021-0.129h-0.259l0.002 0.129c0 0.038 0.01 0.784-0.021 2.028h-0.642v0.233h-0.303v0.803h0.915c-0.12 3.415-0.51 9.204-1.746 14.855H70.26v1.146h0.411c-0.279 1.167-0.601 2.322-0.963 3.44h-1.042v1.146h0.648c-0.553 1.536-1.198 2.98-1.944 4.278V53.43l-1.848 2.184v4.328h-0.681v-4.328l-1.849-2.184v9.236h-0.68v-8.849-2.14-0.486-1.165-1.75h-0.486v1.75H60.66v1.651h-0.681v10.988h-1.264v-5.153h-2.431v3.11h-1.943V45.358h-3.209v2.333h-3.404v12.25H46.57v-2.272-1.082-2.851h-0.378v-0.795h-2.274v0.795h-0.378v2.851h-1.803v-2.851h-0.379v-0.795h-2.274v0.795h-0.379v2.851 1.082 3.829h-1.96v-3.985H35.09v5.28h-0.842v-10.37h-1.946v-4.795h-1.296v-1.815h-1.555v1.815 1.686 12.444h-0.972v-7.349h-8.264v5.794h-2.236v3.557h-2.801v-2.235h-1.015v-1.556l1.07 1.295 1.624-1.624-2.801-2.316 2.801-2.313-1.624-1.626-2.316 2.805-2.315-2.805-1.623 1.626 2.801 2.313-2.801 2.316 1.623 1.624 1.071-1.295v1.556h-1.015v2.235H9.334v-1.774H8.071v-2.819h-3.11v5.541h0.064l0.002 1.148h90.012v-2.096H95.037zM72.803 46.632l0.66 5.229h-1.316L72.803 46.632zM72.231 53.247h1.146l1.029 3.576h-3.204L72.231 53.247zM72.803 59.669c1.854 0 3.426 1.709 4.002 4.09h-8.004C69.381 61.378 70.951 59.669 72.803 59.669zM24.347 57.809c0.781 0 1.412 0.631 1.412 1.411v4.539h-2.824V59.22C22.935 58.439 23.566 57.809 24.347 57.809z" fill="#99592a" data-fill-palette-color="accent"></path></svg></g></svg></g><g></g></svg></g><defs></defs></svg><rect width="395.52" height="180.89792287351872" fill="none" stroke="none" visibility="hidden"></rect></g></svg></g></svg>